<svg width="137" height="40" viewBox="0 0 137 40" fill="none" xmlns="http://www.w3.org/2000/svg">
<path d="M45.0312 32.2344C44.6146 32.2344 44.1615 32.1979 43.6719 32.125C43.1927 32.0625 42.7083 31.9219 42.2188 31.7031C41.7396 31.4844 41.276 31.1771 40.8281 30.7812C40.3906 30.375 40 29.8438 39.6562 29.1875C39.3229 28.5312 39.0521 27.724 38.8438 26.7656C38.6458 25.7969 38.5469 24.6458 38.5469 23.3125V13.8594C38.5469 12.5156 38.651 11.3698 38.8594 10.4219C39.0677 9.46354 39.3438 8.66146 39.6875 8.01562C40.0312 7.35938 40.4271 6.83854 40.875 6.45312C41.3229 6.06771 41.7865 5.77604 42.2656 5.57812C42.7448 5.36979 43.2188 5.23438 43.6875 5.17188C44.1667 5.10938 44.6094 5.07812 45.0156 5.07812C46.0781 5.07812 46.9635 5.22917 47.6719 5.53125C48.3906 5.82292 48.9635 6.22917 49.3906 6.75C49.8281 7.26042 50.1354 7.85938 50.3125 8.54688C50.5 9.23438 50.5938 9.96354 50.5938 10.7344C50.5938 11.3073 50.5625 11.8385 50.5 12.3281C50.4479 12.8073 50.3646 13.3385 50.25 13.9219H46.9688V12.5625C46.9688 11.0938 46.8073 9.99479 46.4844 9.26562C46.1615 8.53646 45.6875 8.17188 45.0625 8.17188C44.6875 8.17188 44.3594 8.24479 44.0781 8.39062C43.7969 8.53646 43.5625 8.78646 43.375 9.14062C43.1875 9.48438 43.0417 9.94271 42.9375 10.5156C42.8438 11.0885 42.7969 11.8021 42.7969 12.6562V24.8438C42.7969 25.6771 42.8333 26.3698 42.9062 26.9219C42.9896 27.474 43.1198 27.9167 43.2969 28.25C43.474 28.5833 43.7031 28.8229 43.9844 28.9688C44.276 29.1042 44.625 29.1719 45.0312 29.1719C45.2917 29.1719 45.5417 29.1146 45.7812 29C46.0208 28.875 46.2292 28.6875 46.4062 28.4375C46.5938 28.1771 46.7396 27.8542 46.8438 27.4688C46.9583 27.0729 47.0156 26.6094 47.0156 26.0781V23.4688H50.7188V25.9375C50.7188 28.0833 50.2292 29.6667 49.25 30.6875C48.2708 31.7083 46.8646 32.224 45.0312 32.2344ZM56.625 32.2344C55.9583 32.2344 55.3646 32.1042 54.8438 31.8438C54.3333 31.5729 53.901 31.2083 53.5469 30.75C53.1927 30.2917 52.9219 29.75 52.7344 29.125C52.5573 28.4896 52.4688 27.8021 52.4688 27.0625C52.4688 26.1771 52.5781 25.3906 52.7969 24.7031C53.0156 24.0156 53.3333 23.3958 53.75 22.8438C54.1771 22.2917 54.7031 21.7917 55.3281 21.3438C55.9531 20.8854 56.6771 20.4531 57.5 20.0469C57.8958 19.849 58.3385 19.651 58.8281 19.4531C59.3281 19.2448 59.7708 19.0677 60.1562 18.9219V16.0781C60.1562 15.6615 60.1406 15.276 60.1094 14.9219C60.0781 14.5573 60 14.2448 59.875 13.9844C59.7604 13.7135 59.5833 13.5052 59.3438 13.3594C59.1042 13.2031 58.776 13.125 58.3594 13.125C58.0781 13.125 57.8021 13.1771 57.5312 13.2812C57.2708 13.3854 57.0365 13.5625 56.8281 13.8125C56.6302 14.0625 56.4688 14.3958 56.3438 14.8125C56.2292 15.2292 56.1719 15.7448 56.1719 16.3594V17.2969H53.1562C53.0625 16.8906 52.9896 16.5208 52.9375 16.1875C52.8958 15.8438 52.875 15.5052 52.875 15.1719C52.875 14.3698 53.0104 13.6615 53.2812 13.0469C53.5625 12.4323 53.9479 11.9167 54.4375 11.5C54.9375 11.0833 55.5312 10.7708 56.2188 10.5625C56.9062 10.3438 57.6615 10.2344 58.4844 10.2344C59.5573 10.2344 60.4479 10.3542 61.1562 10.5938C61.8646 10.8229 62.4271 11.1719 62.8438 11.6406C63.2708 12.1094 63.5677 12.6979 63.7344 13.4062C63.9115 14.1146 64 14.9427 64 15.8906V32H61.0625L60.7812 30.1562C60.3542 30.7708 59.7812 31.2708 59.0625 31.6562C58.3542 32.0417 57.5417 32.2344 56.625 32.2344ZM58.375 29.1875C58.7083 29.1875 59.0312 29.1042 59.3438 28.9375C59.6667 28.7604 59.9375 28.5469 60.1562 28.2969V21.5625C59.9479 21.6458 59.7135 21.7448 59.4531 21.8594C59.1927 21.974 58.9115 22.125 58.6094 22.3125C58.3281 22.4896 58.0521 22.7031 57.7812 22.9531C57.5104 23.2031 57.2656 23.5 57.0469 23.8438C56.8385 24.1875 56.6667 24.5781 56.5312 25.0156C56.4062 25.4427 56.3438 25.9219 56.3438 26.4531C56.3438 27.276 56.5052 27.9375 56.8281 28.4375C57.151 28.9375 57.6667 29.1875 58.375 29.1875ZM68.5469 13.2969H66.875V10.4844H68.8906L69.6875 4.90625H72.5V10.4844H75.9375V13.2969H72.5V26.9844C72.5 27.4531 72.5417 27.8333 72.625 28.125C72.7188 28.4062 72.8438 28.6302 73 28.7969C73.1562 28.9531 73.3385 29.0573 73.5469 29.1094C73.7552 29.1615 73.974 29.1875 74.2031 29.1875C74.5885 29.1875 74.9271 29.1406 75.2188 29.0469C75.5208 28.9531 75.8073 28.8229 76.0781 28.6562V30.8438C75.849 31.125 75.599 31.3542 75.3281 31.5312C75.0677 31.7083 74.7969 31.8542 74.5156 31.9688C74.2344 32.0729 73.9479 32.1458 73.6562 32.1875C73.3646 32.2292 73.0781 32.25 72.7969 32.25C72.2448 32.25 71.7135 32.1771 71.2031 32.0312C70.6927 31.8854 70.2396 31.6094 69.8438 31.2031C69.4479 30.7865 69.1302 30.2135 68.8906 29.4844C68.6615 28.7552 68.5469 27.8073 68.5469 26.6406V13.2969ZM81.625 32.2344C80.9583 32.2344 80.3646 32.1042 79.8438 31.8438C79.3333 31.5729 78.901 31.2083 78.5469 30.75C78.1927 30.2917 77.9219 29.75 77.7344 29.125C77.5573 28.4896 77.4688 27.8021 77.4688 27.0625C77.4688 26.1771 77.5781 25.3906 77.7969 24.7031C78.0156 24.0156 78.3333 23.3958 78.75 22.8438C79.1771 22.2917 79.7031 21.7917 80.3281 21.3438C80.9531 20.8854 81.6771 20.4531 82.5 20.0469C82.8958 19.849 83.3385 19.651 83.8281 19.4531C84.3281 19.2448 84.7708 19.0677 85.1562 18.9219V16.0781C85.1562 15.6615 85.1406 15.276 85.1094 14.9219C85.0781 14.5573 85 14.2448 84.875 13.9844C84.7604 13.7135 84.5833 13.5052 84.3438 13.3594C84.1042 13.2031 83.776 13.125 83.3594 13.125C83.0781 13.125 82.8021 13.1771 82.5312 13.2812C82.2708 13.3854 82.0365 13.5625 81.8281 13.8125C81.6302 14.0625 81.4688 14.3958 81.3438 14.8125C81.2292 15.2292 81.1719 15.7448 81.1719 16.3594V17.2969H78.1562C78.0625 16.8906 77.9896 16.5208 77.9375 16.1875C77.8958 15.8438 77.875 15.5052 77.875 15.1719C77.875 14.3698 78.0104 13.6615 78.2812 13.0469C78.5625 12.4323 78.9479 11.9167 79.4375 11.5C79.9375 11.0833 80.5312 10.7708 81.2188 10.5625C81.9062 10.3438 82.6615 10.2344 83.4844 10.2344C84.5573 10.2344 85.4479 10.3542 86.1562 10.5938C86.8646 10.8229 87.4271 11.1719 87.8438 11.6406C88.2708 12.1094 88.5677 12.6979 88.7344 13.4062C88.9115 14.1146 89 14.9427 89 15.8906V32H86.0625L85.7812 30.1562C85.3542 30.7708 84.7812 31.2708 84.0625 31.6562C83.3542 32.0417 82.5417 32.2344 81.625 32.2344ZM83.375 29.1875C83.7083 29.1875 84.0312 29.1042 84.3438 28.9375C84.6667 28.7604 84.9375 28.5469 85.1562 28.2969V21.5625C84.9479 21.6458 84.7135 21.7448 84.4531 21.8594C84.1927 21.974 83.9115 22.125 83.6094 22.3125C83.3281 22.4896 83.0521 22.7031 82.7812 22.9531C82.5104 23.2031 82.2656 23.5 82.0469 23.8438C81.8385 24.1875 81.6667 24.5781 81.5312 25.0156C81.4062 25.4427 81.3438 25.9219 81.3438 26.4531C81.3438 27.276 81.5052 27.9375 81.8281 28.4375C82.151 28.9375 82.6667 29.1875 83.375 29.1875ZM93.1562 3.57812H97.1094V32H93.1562V3.57812ZM100.438 36.1406C101.031 36.224 101.578 36.2031 102.078 36.0781C102.578 35.9635 103.005 35.7396 103.359 35.4062C103.724 35.0729 104.01 34.6302 104.219 34.0781C104.438 33.5365 104.562 32.8854 104.594 32.125L99.5 10.4844H103.516L105.781 22.3906L106.438 26.5H106.562L107.016 22.3906L108.844 10.4844H112.734L108.203 32.7969C108.005 33.8281 107.75 34.7292 107.438 35.5C107.135 36.2708 106.755 36.9115 106.297 37.4219C105.849 37.9323 105.312 38.3125 104.688 38.5625C104.062 38.8229 103.333 38.9531 102.5 38.9531C101.823 38.9531 101.13 38.8229 100.422 38.5625L100.438 36.1406ZM114.438 27.5C114.438 27.0312 114.479 26.5781 114.562 26.1406C114.656 25.7031 114.745 25.3542 114.828 25.0938H117.609C117.609 25.875 117.646 26.5312 117.719 27.0625C117.802 27.5833 117.932 28 118.109 28.3125C118.286 28.625 118.521 28.849 118.812 28.9844C119.115 29.1198 119.479 29.1875 119.906 29.1875C120.5 29.1875 120.932 29.0208 121.203 28.6875C121.474 28.3542 121.609 27.9688 121.609 27.5312C121.609 27.3021 121.578 27.0833 121.516 26.875C121.453 26.6667 121.365 26.4583 121.25 26.25C121.135 26.0312 120.995 25.8125 120.828 25.5938C120.661 25.375 120.474 25.1354 120.266 24.875L117.375 21.4688C117 21 116.635 20.526 116.281 20.0469C115.938 19.5573 115.63 19.0573 115.359 18.5469C115.099 18.026 114.885 17.4844 114.719 16.9219C114.562 16.3594 114.484 15.7656 114.484 15.1406C114.484 14.3073 114.625 13.5833 114.906 12.9688C115.198 12.3542 115.583 11.8438 116.062 11.4375C116.552 11.0312 117.115 10.7292 117.75 10.5312C118.385 10.3333 119.057 10.2344 119.766 10.2344C120.547 10.2344 121.25 10.3281 121.875 10.5156C122.5 10.7031 123.036 10.9844 123.484 11.3594C123.932 11.7344 124.276 12.2031 124.516 12.7656C124.755 13.3177 124.875 13.9635 124.875 14.7031C124.875 15.2031 124.828 15.6875 124.734 16.1562C124.651 16.625 124.568 17.026 124.484 17.3594H121.75C121.74 16.651 121.708 16.0312 121.656 15.5C121.604 14.9688 121.505 14.5312 121.359 14.1875C121.224 13.8333 121.031 13.5677 120.781 13.3906C120.542 13.2135 120.224 13.125 119.828 13.125C119.484 13.125 119.198 13.1823 118.969 13.2969C118.74 13.401 118.552 13.5417 118.406 13.7188C118.271 13.8958 118.172 14.0938 118.109 14.3125C118.057 14.5312 118.031 14.7552 118.031 14.9844C118.031 15.4844 118.151 15.9479 118.391 16.375C118.63 16.8021 118.948 17.2656 119.344 17.7656L122.5 21.4688C122.729 21.75 122.995 22.0938 123.297 22.5C123.599 22.8958 123.885 23.3385 124.156 23.8281C124.427 24.3073 124.656 24.8333 124.844 25.4062C125.031 25.9792 125.125 26.5781 125.125 27.2031C125.125 27.9635 125.005 28.6562 124.766 29.2812C124.526 29.8958 124.172 30.4219 123.703 30.8594C123.234 31.2969 122.656 31.6354 121.969 31.875C121.292 32.1146 120.516 32.2344 119.641 32.2344C118.922 32.2344 118.245 32.1562 117.609 32C116.974 31.8333 116.422 31.5677 115.953 31.2031C115.484 30.8281 115.115 30.3385 114.844 29.7344C114.573 29.1302 114.438 28.3854 114.438 27.5ZM128.703 13.2969H127.031V10.4844H129.047L129.844 4.90625H132.656V10.4844H136.094V13.2969H132.656V26.9844C132.656 27.4531 132.698 27.8333 132.781 28.125C132.875 28.4062 133 28.6302 133.156 28.7969C133.312 28.9531 133.495 29.0573 133.703 29.1094C133.911 29.1615 134.13 29.1875 134.359 29.1875C134.745 29.1875 135.083 29.1406 135.375 29.0469C135.677 28.9531 135.964 28.8229 136.234 28.6562V30.8438C136.005 31.125 135.755 31.3542 135.484 31.5312C135.224 31.7083 134.953 31.8542 134.672 31.9688C134.391 32.0729 134.104 32.1458 133.812 32.1875C133.521 32.2292 133.234 32.25 132.953 32.25C132.401 32.25 131.87 32.1771 131.359 32.0312C130.849 31.8854 130.396 31.6094 130 31.2031C129.604 30.7865 129.286 30.2135 129.047 29.4844C128.818 28.7552 128.703 27.8073 128.703 26.6406V13.2969Z" fill="#E25041"/>
<path fill-rule="evenodd" clip-rule="evenodd" d="M10.4086 4.09011C10.1748 4.13907 9.72379 4.30643 9.40643 4.462C8.44746 4.93217 7.65875 5.82155 7.30998 6.82599C6.52582 9.08446 7.72994 11.4975 10.0293 12.2753C10.4384 12.4136 11.2526 12.4944 11.7025 12.4411C11.9129 12.4162 12.0979 12.4164 12.1134 12.4415C12.129 12.4667 12.3154 12.9539 12.5277 13.5241L12.9137 14.5608L12.588 14.7601C12.1276 15.0417 11.4853 15.6169 11.1144 16.0797C10.7253 16.5651 10.2551 17.485 10.1052 18.054C10.0437 18.2878 9.98886 18.4859 9.98358 18.4941C9.97702 18.5041 7.18643 18.3487 7.00166 18.3279C6.99862 18.3276 6.96242 18.1765 6.92118 17.9922C6.64129 16.7415 5.51383 15.6545 4.21314 15.3814C3.67705 15.2688 3.35221 15.2688 2.81612 15.3814C0.916224 15.7804 -0.33636 17.6973 0.0800143 19.5688C0.372903 20.8855 1.28759 21.8477 2.626 22.2469C2.99378 22.3566 3.93732 22.3731 4.315 22.2764C5.47957 21.9783 6.41048 21.155 6.80474 20.0743C6.93151 19.7267 6.93266 19.7257 7.15181 19.7539C7.27268 19.7695 7.93196 19.8132 8.6168 19.8508C9.30165 19.8884 9.88251 19.9317 9.90753 19.9469C9.93256 19.9622 9.95309 20.0635 9.95309 20.1721C9.95309 20.8976 10.5603 22.336 11.2024 23.1314L11.5996 23.6235L10.3432 25.3036C9.65224 26.2276 9.06561 27.007 9.03974 27.0356C9.01386 27.0642 8.81804 27.0178 8.6046 26.9323C8.03734 26.7054 7.68493 26.6394 7.033 26.6377C4.70678 26.632 2.84649 28.4997 2.84649 30.841C2.84649 32.7136 4.01859 34.3231 5.79239 34.8861C8.43076 35.7235 11.1307 33.8347 11.2708 31.0536C11.3224 30.0291 11.0442 29.1244 10.4247 28.3027L10.1369 27.9209L11.4208 26.2069C12.1269 25.2643 12.7145 24.4813 12.7266 24.467C12.7388 24.4526 12.8508 24.4906 12.9757 24.5513C13.9064 25.0041 14.5564 25.1563 15.5716 25.159C16.9591 25.1629 18.0502 24.769 19.1707 23.8598C19.3797 23.6902 19.5667 23.5515 19.5864 23.5515C19.6178 23.5515 24.1675 27.0071 24.3151 27.143C24.3509 27.1761 24.3196 27.3396 24.2321 27.5759C24.0392 28.0965 23.9917 29.021 24.1301 29.5613C24.4534 30.8234 25.4496 31.8314 26.6846 32.1459C27.1495 32.2644 27.9894 32.2641 28.4453 32.1453C29.7017 31.818 30.7358 30.7367 30.9997 29.4742C31.1716 28.6518 31.0915 27.9964 30.7225 27.2059C29.866 25.3709 27.4793 24.6415 25.8063 25.7035C25.6225 25.8201 25.4144 25.9467 25.3439 25.9848C25.2283 26.0471 24.9762 25.8709 22.8121 24.2154L20.4087 22.3769L20.5543 22.0895C20.9903 21.229 21.1555 20.5304 21.1563 19.5422C21.1572 18.6126 20.975 17.8209 20.5839 17.0542L20.4608 16.8128L20.7798 16.5781C21.9938 15.685 23.4375 14.6279 23.5971 14.5152L23.7872 14.381L24.0712 14.5978C25.9749 16.0516 28.8003 15.1044 29.526 12.7691C29.7082 12.1827 29.7082 11.3508 29.526 10.7644C28.9713 8.97943 27.1297 7.91176 25.3353 8.33485C24.0647 8.63445 23.0038 9.69982 22.7042 10.9771C22.5787 11.5118 22.6133 12.2803 22.7862 12.7955L22.9344 13.2376L22.3811 13.6469C22.0768 13.8721 21.3396 14.414 20.7429 14.8513L19.658 15.6462L19.2756 15.3217C18.0999 14.3242 16.7366 13.836 15.359 13.9192C15.0082 13.9403 14.6089 13.9729 14.4717 13.9916L14.2223 14.0255L13.8261 12.972C13.3781 11.7808 13.3626 11.9543 13.959 11.4934C14.6166 10.9853 15.1749 10.1277 15.4025 9.27617C15.5485 8.73025 15.5432 7.61611 15.3924 7.11969C15.1682 6.38218 14.8323 5.80922 14.3107 5.2749C13.3009 4.24052 11.8277 3.79325 10.4086 4.09011ZM12.0471 5.52183C13.7696 5.9561 14.648 8.08221 13.7429 9.62674C12.8015 11.2333 10.6235 11.5235 9.31665 10.2164C8.00971 8.90939 8.29986 6.73122 9.90626 5.78972C10.5285 5.42506 11.2868 5.33018 12.0471 5.52183ZM27.0308 9.86249C27.4867 10.0671 27.9362 10.545 28.1101 11.0099C28.498 12.0467 28.0122 13.2258 27.0084 13.684C26.4807 13.9248 25.8175 13.93 25.3097 13.6973C24.8525 13.4877 24.4719 13.1268 24.2535 12.6958C24.0935 12.3799 24.0752 12.2847 24.0752 11.7668C24.0752 11.2488 24.0935 11.1536 24.2535 10.8377C24.7763 9.80588 25.9704 9.38655 27.0308 9.86249ZM16.2701 15.3769C16.8879 15.489 17.3348 15.6671 17.8619 16.0113C19.4878 17.0727 20.185 19.1546 19.5243 20.975C18.8909 22.7201 17.0944 23.9062 15.2938 23.768C14.1991 23.684 13.3355 23.294 12.5953 22.5496C11.8286 21.7785 11.4707 21.0545 11.3394 20.0082C11.2172 19.0346 11.4565 18.0552 12.0239 17.2067C12.9761 15.783 14.6152 15.0766 16.2701 15.3769ZM4.4561 16.9431C6.03857 17.7596 6.00334 19.9708 4.39536 20.7599C4.14116 20.8847 4.00237 20.909 3.54409 20.909C3.04772 20.909 2.95849 20.8903 2.58998 20.709C1.25023 20.05 1.01438 18.2678 2.13364 17.2613C2.57382 16.8656 2.93887 16.7429 3.60574 16.7668C4.04951 16.7827 4.20956 16.8159 4.4561 16.9431ZM28.3393 26.7827C28.513 26.8466 28.7947 27.0244 28.9652 27.1778C30.0866 28.1861 29.8048 30.0122 28.43 30.6456C27.3791 31.1299 26.1336 30.6637 25.6442 29.6028C25.4988 29.2877 25.4728 29.1527 25.4725 28.7149C25.4723 28.2849 25.4986 28.1427 25.6299 27.8644C26.1164 26.8342 27.2502 26.3815 28.3393 26.7827ZM7.88239 28.1618C9.90146 28.7902 10.5335 31.3481 9.03907 32.8427C8.48494 33.3969 7.83818 33.6578 7.03768 33.6501C4.54575 33.6258 3.31364 30.6264 5.07292 28.8669C5.79973 28.14 6.91401 27.8604 7.88239 28.1618Z" fill="#E25041"/>
<circle cx="15.6807" cy="19.6807" r="4.67669" fill="#E25041"/>
<circle cx="7.15264" cy="31.2348" r="4.67669" fill="#E25041"/>
</svg>
