<svg width="1627" height="1601" viewBox="0 0 1627 1601" fill="none" xmlns="http://www.w3.org/2000/svg">
<circle cx="809.631" cy="800.186" r="795.186" fill="white" stroke="#EB6B56" stroke-width="10"/>
<path d="M1358.95 734.225C1401.12 758.735 1455.55 744.317 1480.06 701.785C1504.57 659.613 1490.15 605.186 1447.62 580.676C1405.44 556.165 1351.02 570.583 1326.51 613.116C1302.36 655.648 1316.77 709.715 1358.95 734.225Z" fill="#EB6B56"/>
<path d="M1185.57 1033.75C1227.75 1058.26 1282.17 1043.85 1306.68 1001.31C1331.19 959.143 1316.78 904.716 1274.24 880.205C1232.07 855.695 1177.64 870.113 1153.13 912.645C1128.98 955.178 1143.4 1009.24 1185.57 1033.75Z" fill="#EB6B56"/>
<path d="M1013.64 1331.12C1055.81 1355.63 1110.24 1341.21 1134.75 1298.68C1159.26 1256.51 1144.84 1202.08 1102.31 1177.57C1060.14 1153.06 1005.71 1167.48 981.2 1210.01C956.69 1252.55 971.108 1306.61 1013.64 1331.12Z" fill="#EB6B56"/>
<path d="M519.473 1180.1C476.94 1204.61 462.522 1258.67 487.033 1301.2C511.543 1343.74 565.609 1358.15 608.142 1333.64C650.674 1309.13 665.092 1255.07 640.582 1212.54C616.072 1170 562.005 1155.59 519.473 1180.1Z" fill="#EB6B56"/>
<path d="M346.818 880.205C304.286 904.716 289.868 958.782 314.378 1001.31C338.889 1043.85 392.955 1058.26 435.488 1033.75C478.02 1009.24 492.438 955.178 467.928 912.645C443.418 870.113 389.351 855.695 346.818 880.205Z" fill="#EB6B56"/>
<path d="M175.248 582.118C132.716 606.628 118.298 660.695 142.808 703.227C167.318 745.76 221.385 760.178 263.917 735.667C306.45 711.157 320.867 657.091 296.357 614.558C271.847 572.386 217.78 557.968 175.248 582.118Z" fill="#EB6B56"/>
<path d="M1623.15 719.086C1606.93 521.562 1502.04 326.562 1348.49 206.534L1336.96 216.626C1342.37 223.475 1347.77 230.323 1353.18 236.811C1358.23 243.66 1368.68 258.077 1374.09 265.647L1378.05 271.414L1385.98 283.308C1396.79 299.889 1407.25 316.83 1416.98 334.131C1416.98 334.852 1417.34 335.573 1417.7 336.294C1441.49 374.14 1464.56 441.543 1482.22 500.656C1493.75 538.142 1502.4 578.512 1507.45 606.987C1509.61 623.928 1511.41 640.869 1512.5 657.81C1511.41 683.041 1504.57 703.947 1498.8 714.039C1471.41 761.618 1413.73 781.442 1363.99 763.42C1357.87 761.257 1351.74 758.374 1345.97 755.13C1340.56 751.886 1134.75 613.836 1109.52 605.906C1109.52 605.906 1071.67 586.442 1053.29 614.557L1052.93 614.917C1052.57 615.278 1052.57 615.638 1052.21 616.359C1051.85 616.719 1051.49 617.08 1051.49 617.801C1035.63 647.718 1068.43 673.67 1068.43 673.67C1088.61 692.052 1150.97 740.352 1194.22 776.396C1237.48 812.441 1309.21 870.472 1321.82 889.576C1342.37 920.934 1347.05 961.304 1332.63 997.349C1330.83 1002.76 1328.67 1007.8 1325.79 1013.21C1322.54 1018.25 1319.3 1022.58 1315.33 1026.91C1291.18 1057.54 1254.06 1073.4 1216.57 1071.24C1193.86 1069.44 1107.72 1036.28 1054.73 1016.81C1015.08 1002.39 964.26 981.849 930.378 968.873L939.75 1070.88C1011.48 1108.73 1108.8 1156.66 1112.4 1158.83C1118.17 1162.07 1123.58 1166.04 1128.62 1170.36C1168.99 1204.6 1180.53 1264.44 1153.13 1312.02C1147.37 1321.75 1133.67 1336.89 1114.2 1350.22C1092.58 1360.68 1069.87 1370.41 1047.16 1378.34C852.523 1446.82 657.162 1425.2 495.683 1341.93C481.986 1331.12 472.614 1319.59 467.928 1312.02C440.535 1264.44 452.069 1204.96 492.799 1170.72C497.845 1166.4 503.252 1162.79 509.019 1159.19C512.623 1157.03 612.466 1108.01 684.555 1070.16L693.927 968.873C660.045 981.489 607.42 1002.76 567.051 1017.53C514.065 1037 427.919 1069.8 405.211 1071.6C367.725 1073.76 330.599 1057.54 306.449 1026.91C302.845 1022.58 299.24 1018.25 295.996 1013.21C293.473 1008.16 290.95 1002.76 289.148 997.349C274.73 961.304 279.416 920.934 299.961 889.576C312.937 870.472 384.666 812.441 427.919 776.757C471.172 740.712 533.89 692.413 554.074 674.39C554.074 674.39 587.235 648.799 571.376 618.522C571.015 618.161 571.015 617.801 570.655 617.08C570.295 616.719 570.294 616.359 569.934 615.638L569.574 615.278C569.213 615.638 568.853 615.998 568.492 615.998C568.853 615.638 569.213 615.278 569.574 615.278C551.191 587.163 513.344 606.627 513.344 606.627C488.113 614.557 281.939 752.246 276.532 755.49C270.765 758.734 264.638 761.618 258.51 763.781C208.408 781.803 151.098 761.978 123.704 714.4C119.379 706.83 114.333 693.134 111.809 676.193C113.251 635.102 117.937 594.011 126.227 553.642C130.192 536.34 135.238 518.318 140.645 500.656C153.261 459.205 168.399 420.638 178.131 392.883C192.188 361.525 208.048 331.247 226.07 302.051C244.092 272.135 264.638 243.659 286.264 216.266L278.695 209.778C158.667 302.772 67.1142 441.543 26.7444 594.011C-110.224 1110.53 297.438 1606.14 826.57 1596.77C1292.26 1591 1668.93 1185.14 1623.15 719.086Z" fill="#EB6B56"/>
<path d="M440.535 387.838L607.781 427.126C628.687 359.363 682.393 305.657 750.157 284.751L710.868 117.505L813.955 0L917.042 117.505L877.754 285.111C945.517 306.017 999.224 359.723 1020.13 427.487L1187.38 388.199L1304.88 491.286L1187.38 594.373L1020.13 555.084C996.34 632.219 930.018 690.972 848.558 704.308L917.042 1453.67L813.955 1571.18L710.868 1453.67L779.353 704.308C698.253 690.972 631.931 632.219 607.781 555.084L440.535 594.373L323.03 491.286L440.535 387.838Z" fill="white"/>
<path d="M612.559 553.25L611.186 548.798L606.648 549.854L441.902 588.2L330.612 490.565L441.893 392.938L606.628 431.992L611.18 433.071L612.559 428.6C632.977 362.417 685.447 309.947 751.631 289.529L756.092 288.152L755.024 283.608L716.324 118.867L813.955 7.58169L911.586 118.867L872.886 283.608L871.819 288.152L876.28 289.529C942.464 309.947 994.933 362.417 1015.35 428.6L1016.73 433.062L1021.27 431.994L1186.01 393.294L1297.3 490.925L1186.01 588.556L1021.27 549.856L1016.75 548.793L1015.36 553.23C991.763 628.594 927.312 685.988 847.75 699.013L843.155 699.766L843.579 704.403L911.868 1451.63L813.955 1563.23L716.043 1451.63L784.332 704.403L784.756 699.766L780.16 699.013C700.584 685.985 635.793 628.583 612.559 553.25ZM657.82 537.962L652.499 539.212L654.218 544.401C673.175 601.645 722.583 645.085 783.104 656.595L788.514 657.624L789.017 652.141L801.994 510.846L802.628 503.934L795.871 505.522L657.82 537.962ZM838.893 652.141L839.397 657.624L844.806 656.595C905.347 645.081 954.368 601.631 973.683 544.429L975.442 539.219L970.09 537.962L832.04 505.522L825.282 503.934L825.917 510.846L838.893 652.141ZM970.091 443.888L975.421 442.634L973.69 437.44C956.968 387.274 917.222 347.908 867.451 331.194L862.249 329.447L860.992 334.789L829.273 469.595L827.423 477.457L835.285 475.607L970.091 443.888ZM766.918 334.789L765.664 329.459L760.47 331.191C710.317 347.908 670.938 387.287 654.221 437.44L652.489 442.634L657.819 443.888L792.625 475.607L800.487 477.457L798.638 469.595L766.918 334.789Z" fill="#EB6B56" stroke="white" stroke-width="10"/>
</svg>
