<svg width="3095" height="636" viewBox="0 0 3095 636" fill="none" xmlns="http://www.w3.org/2000/svg">
<path d="M616.488 507.662C609.978 507.662 602.898 507.092 595.248 505.953C587.761 504.977 580.193 502.779 572.543 499.361C565.056 495.943 557.813 491.142 550.814 484.957C543.979 478.609 537.875 470.309 532.504 460.055C527.296 449.801 523.064 437.187 519.809 422.213C516.716 407.076 515.17 389.091 515.17 368.258V220.553C515.17 199.557 516.798 181.653 520.053 166.842C523.308 151.868 527.621 139.335 532.992 129.244C538.363 118.99 544.548 110.852 551.547 104.83C558.546 98.8079 565.788 94.2507 573.275 91.1582C580.762 87.903 588.168 85.7871 595.492 84.8105C602.979 83.834 609.896 83.3457 616.244 83.3457C632.846 83.3457 646.68 85.7057 657.748 90.4258C668.979 94.9831 677.93 101.331 684.604 109.469C691.439 117.444 696.241 126.803 699.008 137.545C701.938 148.287 703.402 159.68 703.402 171.725C703.402 180.676 702.914 188.977 701.938 196.627C701.124 204.114 699.822 212.415 698.031 221.529H646.762V200.289C646.762 177.34 644.239 160.169 639.193 148.775C634.148 137.382 626.742 131.686 616.977 131.686C611.117 131.686 605.99 132.825 601.596 135.104C597.201 137.382 593.539 141.288 590.609 146.822C587.68 152.193 585.401 159.355 583.773 168.307C582.309 177.258 581.576 188.408 581.576 201.754V392.184C581.576 405.204 582.146 416.028 583.285 424.654C584.587 433.281 586.622 440.198 589.389 445.406C592.156 450.615 595.736 454.358 600.131 456.637C604.688 458.753 610.141 459.811 616.488 459.811C620.557 459.811 624.464 458.915 628.207 457.125C631.951 455.172 635.206 452.242 637.973 448.336C640.902 444.267 643.181 439.221 644.809 433.199C646.599 427.014 647.494 419.771 647.494 411.471V370.699H705.355V409.273C705.355 442.802 697.706 467.542 682.406 483.492C667.107 499.443 645.134 507.499 616.488 507.662ZM751.254 59.9082H813.021V139.01L809.848 196.627C814.405 190.279 819.288 185.071 824.496 181.002C829.867 176.77 835.32 173.434 840.854 170.992C846.55 168.388 852.247 166.598 857.943 165.621C863.803 164.482 869.581 163.912 875.277 163.912C894.971 163.912 910.108 170.829 920.688 184.664C931.43 198.336 936.801 218.925 936.801 246.432V504H875.033V248.629C875.033 233.818 872.755 223.564 868.197 217.867C863.64 212.008 856.967 209.078 848.178 209.078C841.993 209.078 835.727 211.194 829.379 215.426C823.194 219.495 817.742 225.191 813.021 232.516V504H751.254V59.9082ZM1001.25 167.818H1063.02V420.504C1063.02 435.315 1065.3 445.65 1069.86 451.51C1074.41 457.206 1081.09 460.055 1089.88 460.055C1096.06 460.055 1102.08 458.346 1107.94 454.928C1113.8 451.51 1119.09 446.627 1123.81 440.279V167.818H1185.58V504H1138.46L1132.36 468.111H1132.11C1127.23 475.761 1122.02 482.19 1116.49 487.398C1111.12 492.444 1105.42 496.513 1099.4 499.605C1093.54 502.535 1087.52 504.651 1081.33 505.953C1075.15 507.255 1068.96 507.906 1062.78 507.906C1043.08 507.906 1027.87 501.07 1017.12 487.398C1006.54 473.727 1001.25 453.056 1001.25 425.387V167.818ZM1250.28 167.818H1295.44L1300.81 201.998C1307.65 189.303 1315.46 179.781 1324.25 173.434C1333.2 167.086 1342.32 163.912 1351.6 163.912C1369.34 163.912 1382.44 169.365 1390.9 180.27C1399.37 191.174 1403.6 207.532 1403.6 229.342C1403.6 232.109 1403.35 235.445 1402.87 239.352C1402.54 243.095 1401.97 247.083 1401.16 251.314C1400.51 255.383 1399.61 259.534 1398.47 263.766C1397.49 267.835 1396.44 271.578 1395.3 274.996H1352.33V243.746C1352.33 236.91 1351.84 231.295 1350.86 226.9C1350.05 222.506 1348.91 219.007 1347.45 216.402C1345.98 213.635 1344.27 211.764 1342.32 210.787C1340.37 209.648 1338.25 209.078 1335.97 209.078C1331.09 209.078 1326.53 210.706 1322.3 213.961C1318.23 217.053 1314.81 221.448 1312.04 227.145V504H1250.28V167.818ZM1521.03 507.662C1492.71 507.662 1471.06 496.025 1456.09 472.75C1441.28 449.475 1433.87 413.993 1433.87 366.305V302.828C1433.87 281.507 1435.42 263.277 1438.51 248.141C1441.6 232.841 1445.67 220.064 1450.72 209.811C1455.93 199.394 1461.78 191.174 1468.29 185.152C1474.97 179.13 1481.8 174.573 1488.8 171.48C1495.8 168.225 1502.72 166.191 1509.55 165.377C1516.39 164.4 1522.66 163.912 1528.35 163.912C1539.75 163.912 1550.16 165.458 1559.6 168.551C1569.04 171.48 1577.18 176.038 1584.02 182.223C1590.85 188.245 1596.14 195.895 1599.89 205.172C1603.63 214.449 1605.5 225.354 1605.5 237.887C1605.5 245.699 1605.1 252.454 1604.28 258.15C1603.63 263.684 1602.65 269.055 1601.35 274.264H1552.04V263.033C1552.04 246.106 1550 232.923 1545.93 223.482C1542.03 213.88 1535.51 209.078 1526.4 209.078C1521.35 209.078 1516.96 210.299 1513.22 212.74C1509.47 215.019 1506.3 219.007 1503.7 224.703C1501.25 230.4 1499.38 238.049 1498.08 247.652C1496.94 257.255 1496.37 269.299 1496.37 283.785V379.244C1496.37 393.893 1496.86 406.344 1497.84 416.598C1498.81 426.852 1500.52 435.234 1502.96 441.744C1505.4 448.092 1508.66 452.73 1512.73 455.66C1516.8 458.59 1521.84 460.055 1527.87 460.055C1530.96 460.055 1533.97 459.322 1536.9 457.857C1539.83 456.23 1542.35 453.626 1544.47 450.045C1546.75 446.464 1548.54 441.744 1549.84 435.885C1551.3 429.863 1552.04 422.457 1552.04 413.668V403.17H1605.26V416.109C1605.26 448.01 1598.18 471.285 1584.02 485.934C1570.02 500.419 1549.02 507.662 1521.03 507.662ZM1655.55 59.9082H1717.32V139.01L1714.14 196.627C1718.7 190.279 1723.58 185.071 1728.79 181.002C1734.16 176.77 1739.62 173.434 1745.15 170.992C1750.85 168.388 1756.54 166.598 1762.24 165.621C1768.1 164.482 1773.88 163.912 1779.57 163.912C1799.27 163.912 1814.4 170.829 1824.98 184.664C1835.73 198.336 1841.1 218.925 1841.1 246.432V504H1779.33V248.629C1779.33 233.818 1777.05 223.564 1772.49 217.867C1767.94 212.008 1761.26 209.078 1752.47 209.078C1746.29 209.078 1740.02 211.194 1733.68 215.426C1727.49 219.495 1722.04 225.191 1717.32 232.516V504H1655.55V59.9082Z" fill="#EB6B56"/>
<rect x="1869" y="8" width="1226" height="597" fill="#EB6B56"/>
<path d="M1909.03 95.0078H1969.58L1997.66 346.961L2000.83 405.799H2006.93L2012.79 339.637L2057.71 95.0078H2108.25L2151.22 339.637L2156.1 405.799H2162.45L2165.38 346.961L2191.02 95.0078H2251.81L2193.46 512H2129.25L2094.82 311.561L2084.08 224.402H2079.2L2068.7 311.561L2032.57 512H1969.09L1909.03 95.0078ZM2377.78 515.662C2370.62 515.662 2363.3 515.092 2355.81 513.953C2348.49 512.814 2341.32 510.454 2334.33 506.873C2327.49 503.292 2320.98 498.165 2314.79 491.492C2308.77 484.819 2303.48 476.03 2298.93 465.125C2294.37 454.22 2290.79 440.792 2288.18 424.842C2285.58 408.891 2284.28 389.848 2284.28 367.713V314.979C2284.28 293.169 2285.58 274.533 2288.18 259.07C2290.95 243.445 2294.61 230.343 2299.17 219.764C2303.89 209.184 2309.34 200.802 2315.53 194.617C2321.71 188.27 2328.22 183.468 2335.06 180.213C2342.06 176.795 2349.22 174.598 2356.54 173.621C2363.87 172.482 2371.03 171.912 2378.03 171.912C2384.7 171.912 2391.62 172.4 2398.78 173.377C2405.94 174.354 2412.94 176.469 2419.78 179.725C2426.61 182.817 2433.04 187.537 2439.06 193.885C2445.25 200.07 2450.62 208.452 2455.18 219.031C2459.9 229.611 2463.56 242.794 2466.16 258.582C2468.93 274.207 2470.31 293.006 2470.31 314.979V367.713C2470.31 389.523 2468.93 408.322 2466.16 424.109C2463.4 439.897 2459.65 453.243 2454.93 464.148C2450.21 475.053 2444.76 483.924 2438.57 490.76C2432.39 497.433 2425.88 502.641 2419.04 506.385C2412.21 510.128 2405.21 512.57 2398.05 513.709C2391.05 515.011 2384.29 515.662 2377.78 515.662ZM2378.27 468.055C2383.81 468.055 2388.44 466.671 2392.19 463.904C2396.09 460.975 2399.19 456.255 2401.46 449.744C2403.91 443.234 2405.62 434.689 2406.59 424.109C2407.73 413.367 2408.3 400.102 2408.3 384.314V301.551C2408.3 285.763 2407.73 272.498 2406.59 261.756C2405.62 251.014 2403.91 242.387 2401.46 235.877C2399.19 229.204 2396.09 224.402 2392.19 221.473C2388.44 218.543 2383.81 217.078 2378.27 217.078C2372.41 217.078 2367.45 218.543 2363.38 221.473C2359.47 224.402 2356.22 229.204 2353.61 235.877C2351.01 242.387 2349.14 251.014 2348 261.756C2346.86 272.498 2346.29 285.763 2346.29 301.551V384.314C2346.29 400.102 2346.86 413.367 2348 424.109C2349.14 434.689 2351.01 443.234 2353.61 449.744C2356.22 456.255 2359.47 460.975 2363.38 463.904C2367.45 466.671 2372.41 468.055 2378.27 468.055ZM2525 175.818H2570.17L2575.54 209.998C2582.37 197.303 2590.19 187.781 2598.97 181.434C2607.93 175.086 2617.04 171.912 2626.32 171.912C2644.06 171.912 2657.16 177.365 2665.62 188.27C2674.09 199.174 2678.32 215.532 2678.32 237.342C2678.32 240.109 2678.08 243.445 2677.59 247.352C2677.26 251.095 2676.69 255.083 2675.88 259.314C2675.23 263.383 2674.33 267.534 2673.19 271.766C2672.22 275.835 2671.16 279.578 2670.02 282.996H2627.05V251.746C2627.05 244.91 2626.56 239.295 2625.59 234.9C2624.77 230.506 2623.63 227.007 2622.17 224.402C2620.7 221.635 2618.99 219.764 2617.04 218.787C2615.09 217.648 2612.97 217.078 2610.69 217.078C2605.81 217.078 2601.25 218.706 2597.02 221.961C2592.95 225.053 2589.53 229.448 2586.77 235.145V512H2525V175.818ZM2718.36 67.9082H2780.13V512H2718.36V67.9082ZM2909.28 515.906C2905.53 515.906 2901.14 515.499 2896.09 514.686C2891.05 514.035 2885.84 512.407 2880.47 509.803C2875.1 507.199 2869.81 503.292 2864.6 498.084C2859.39 492.876 2854.75 485.796 2850.68 476.844C2846.61 467.729 2843.28 456.499 2840.67 443.152C2838.23 429.806 2837.01 413.611 2837.01 394.568V287.879C2837.01 268.999 2838.31 253.048 2840.92 240.027C2843.68 227.007 2847.27 216.264 2851.66 207.801C2856.05 199.174 2860.94 192.501 2866.31 187.781C2871.84 182.898 2877.29 179.318 2882.67 177.039C2888.2 174.76 2893.41 173.377 2898.29 172.889C2903.34 172.4 2907.49 172.156 2910.74 172.156C2916.76 172.156 2922.46 172.97 2927.83 174.598C2933.2 176.225 2938.09 178.423 2942.48 181.189C2946.88 183.794 2950.78 186.805 2954.2 190.223C2957.62 193.478 2960.47 196.814 2962.74 200.232L2962.99 199.988L2961.04 157.508V67.9082H3022.56V512H2974.46L2969.09 480.75C2966.32 485.145 2963.15 489.458 2959.57 493.689C2955.99 497.921 2951.76 501.746 2946.88 505.164C2941.99 508.419 2936.46 511.023 2930.27 512.977C2924.09 514.93 2917.09 515.906 2909.28 515.906ZM2930.27 468.055C2934.34 468.055 2937.92 467.404 2941.02 466.102C2944.27 464.637 2947.12 462.846 2949.56 460.73C2952.16 458.452 2954.36 455.848 2956.15 452.918C2958.11 449.988 2959.73 446.977 2961.04 443.885V241.736C2957.94 234.9 2953.79 229.122 2948.58 224.402C2943.54 219.52 2937.35 217.078 2930.03 217.078C2925.47 217.078 2921.32 217.892 2917.58 219.52C2913.83 221.147 2910.58 224.24 2907.81 228.797C2905.05 233.191 2902.85 239.376 2901.22 247.352C2899.76 255.164 2899.02 265.337 2899.02 277.869V406.775C2899.02 419.308 2899.76 429.562 2901.22 437.537C2902.85 445.512 2905.05 451.779 2907.81 456.336C2910.58 460.73 2913.83 463.823 2917.58 465.613C2921.48 467.241 2925.72 468.055 2930.27 468.055Z" fill="white"/>
<circle cx="224.62" cy="289" r="220.5" fill="white" stroke="#EB6B56" stroke-width="3"/>
<path d="M377.02 270.7C388.72 277.5 403.82 273.5 410.62 261.7C417.42 250 413.42 234.9 401.62 228.1C389.92 221.3 374.82 225.3 368.02 237.1C361.32 248.9 365.32 263.9 377.02 270.7Z" fill="#EB6B56"/>
<path d="M328.92 353.8C340.62 360.6 355.72 356.6 362.52 344.8C369.32 333.1 365.32 318 353.52 311.2C341.82 304.4 326.72 308.4 319.92 320.2C313.22 332 317.22 347 328.92 353.8Z" fill="#EB6B56"/>
<path d="M281.22 436.3C292.92 443.1 308.02 439.1 314.82 427.3C321.62 415.6 317.62 400.5 305.82 393.7C294.12 386.9 279.02 390.9 272.22 402.7C265.42 414.5 269.42 429.5 281.22 436.3Z" fill="#EB6B56"/>
<path d="M144.12 394.4C132.32 401.2 128.32 416.2 135.12 428C141.92 439.8 156.92 443.8 168.72 437C180.52 430.2 184.52 415.2 177.72 403.4C170.92 391.6 155.92 387.6 144.12 394.4Z" fill="#EB6B56"/>
<path d="M96.2199 311.2C84.4199 318 80.4199 333 87.2199 344.8C94.0199 356.6 109.02 360.6 120.82 353.8C132.62 347 136.62 332 129.82 320.2C123.02 308.4 108.02 304.4 96.2199 311.2Z" fill="#EB6B56"/>
<path d="M48.6198 228.5C36.8198 235.3 32.8198 250.3 39.6198 262.1C46.4198 273.9 61.4198 277.9 73.2198 271.1C85.0198 264.3 89.0198 249.3 82.2198 237.5C75.4198 225.8 60.4198 221.8 48.6198 228.5Z" fill="#EB6B56"/>
<path d="M450.32 266.5C445.82 211.7 416.72 157.6 374.12 124.3L370.92 127.1C372.42 129 373.92 130.9 375.42 132.7C376.82 134.6 379.72 138.6 381.22 140.7L382.32 142.3L384.52 145.6C387.52 150.2 390.42 154.9 393.12 159.7C393.12 159.9 393.22 160.1 393.32 160.3C399.92 170.8 406.32 189.5 411.22 205.9C414.42 216.3 416.82 227.5 418.22 235.4C418.82 240.1 419.32 244.8 419.62 249.5C419.32 256.5 417.42 262.3 415.82 265.1C408.22 278.3 392.22 283.8 378.42 278.8C376.72 278.2 375.02 277.4 373.42 276.5C371.92 275.6 314.82 237.3 307.82 235.1C307.82 235.1 297.32 229.7 292.22 237.5L292.12 237.6C292.02 237.7 292.02 237.8 291.92 238C291.82 238.1 291.72 238.2 291.72 238.4C287.32 246.7 296.42 253.9 296.42 253.9C302.02 259 319.32 272.4 331.32 282.4C343.32 292.4 363.22 308.5 366.72 313.8C372.42 322.5 373.72 333.7 369.72 343.7C369.22 345.2 368.62 346.6 367.82 348.1C366.92 349.5 366.02 350.7 364.92 351.9C358.22 360.4 347.92 364.8 337.52 364.2C331.22 363.7 307.32 354.5 292.62 349.1C281.62 345.1 267.52 339.4 258.12 335.8L260.72 364.1C280.62 374.6 307.62 387.9 308.62 388.5C310.22 389.4 311.72 390.5 313.12 391.7C324.32 401.2 327.52 417.8 319.92 431C318.32 433.7 314.52 437.9 309.12 441.6C303.12 444.5 296.82 447.2 290.52 449.4C236.52 468.4 182.32 462.4 137.52 439.3C133.72 436.3 131.12 433.1 129.82 431C122.22 417.8 125.42 401.3 136.72 391.8C138.12 390.6 139.62 389.6 141.22 388.6C142.22 388 169.92 374.4 189.92 363.9L192.52 335.8C183.12 339.3 168.52 345.2 157.32 349.3C142.62 354.7 118.72 363.8 112.42 364.3C102.02 364.9 91.7199 360.4 85.0199 351.9C84.0199 350.7 83.0199 349.5 82.1199 348.1C81.4199 346.7 80.7198 345.2 80.2198 343.7C76.2198 333.7 77.5198 322.5 83.2198 313.8C86.8198 308.5 106.72 292.4 118.72 282.5C130.72 272.5 148.12 259.1 153.72 254.1C153.72 254.1 162.92 247 158.52 238.6C158.42 238.5 158.42 238.4 158.32 238.2C158.22 238.1 158.22 238 158.12 237.8L158.02 237.7C157.92 237.8 157.82 237.9 157.72 237.9C157.82 237.8 157.92 237.7 158.02 237.7C152.92 229.9 142.42 235.3 142.42 235.3C135.42 237.5 78.2198 275.7 76.7198 276.6C75.1198 277.5 73.4198 278.3 71.7198 278.9C57.8198 283.9 41.9199 278.4 34.3199 265.2C33.1199 263.1 31.7199 259.3 31.0199 254.6C31.4199 243.2 32.7199 231.8 35.0199 220.6C36.1199 215.8 37.5199 210.8 39.0199 205.9C42.5199 194.4 46.7198 183.7 49.4198 176C53.3198 167.3 57.7198 158.9 62.7198 150.8C67.7198 142.5 73.4198 134.6 79.4198 127L77.3199 125.2C44.0199 151 18.6198 189.5 7.41985 231.8C-30.5802 375.1 82.5199 512.6 229.32 510C358.52 508.4 463.02 395.8 450.32 266.5Z" fill="#EB6B56"/>
<path d="M122.22 174.6L168.62 185.5C174.42 166.7 189.32 151.8 208.12 146L197.22 99.6L225.82 67L254.42 99.6L243.52 146.1C262.32 151.9 277.22 166.8 283.02 185.6L329.42 174.7L362.02 203.3L329.42 231.9L283.02 221C276.42 242.4 258.02 258.7 235.42 262.4L254.42 470.3L225.82 502.9L197.22 470.3L216.22 262.4C193.72 258.7 175.32 242.4 168.62 221L122.22 231.9L89.6199 203.3L122.22 174.6Z" fill="white"/>
<path d="M169.575 220.605L169.301 219.715L168.393 219.926L122.493 230.61L91.1362 203.1L122.491 175.592L168.389 186.473L169.3 186.689L169.575 185.795C175.278 167.311 189.931 152.658 208.415 146.956L209.307 146.68L209.093 145.771L198.311 99.8725L225.82 68.5163L253.329 99.8725L242.546 145.771L242.333 146.68L243.225 146.956C261.709 152.658 276.362 167.311 282.064 185.795L282.34 186.687L283.249 186.474L329.147 175.691L360.504 203.2L329.147 230.709L283.249 219.926L282.343 219.714L282.066 220.601C275.476 241.647 257.479 257.675 235.258 261.313L234.339 261.464L234.424 262.391L253.385 469.863L225.82 501.284L198.255 469.863L217.216 262.391L217.3 261.464L216.381 261.313C194.158 257.675 176.064 241.645 169.575 220.605ZM182.591 216.627L181.527 216.877L181.871 217.914C187.086 233.662 200.679 245.615 217.333 248.782L218.415 248.988L218.516 247.891L222.116 208.691L222.243 207.309L220.891 207.627L182.591 216.627ZM233.124 247.891L233.225 248.988L234.307 248.782C250.964 245.614 264.453 233.659 269.767 217.92L270.119 216.878L269.049 216.627L230.749 207.627L229.397 207.309L229.524 208.691L233.124 247.891ZM269.049 189.773L270.115 189.523L269.769 188.484C265.168 174.683 254.232 163.851 240.538 159.252L239.498 158.903L239.246 159.971L230.446 197.371L230.076 198.943L231.649 198.573L269.049 189.773ZM212.393 159.971L212.142 158.905L211.104 159.251C197.305 163.851 186.471 174.685 181.871 188.484L181.525 189.523L182.591 189.773L219.991 198.573L221.563 198.943L221.193 197.371L212.393 159.971Z" fill="#EB6B56" stroke="white" stroke-width="2"/>
</svg>
