<svg width="2604" height="2874" viewBox="0 0 2604 2874" fill="none" xmlns="http://www.w3.org/2000/svg">
<path d="M125.488 2745.66C118.978 2745.66 111.898 2745.09 104.248 2743.95C96.7611 2742.98 89.1927 2740.78 81.543 2737.36C74.056 2733.94 66.8132 2729.14 59.8145 2722.96C52.9785 2716.61 46.875 2708.31 41.5039 2698.05C36.2956 2687.8 32.0638 2675.19 28.8086 2660.21C25.7161 2645.08 24.1699 2627.09 24.1699 2606.26V2458.55C24.1699 2437.56 25.7975 2419.65 29.0527 2404.84C32.3079 2389.87 36.6211 2377.34 41.9922 2367.24C47.3633 2356.99 53.5482 2348.85 60.5469 2342.83C67.5456 2336.81 74.7884 2332.25 82.2754 2329.16C89.7624 2325.9 97.168 2323.79 104.492 2322.81C111.979 2321.83 118.896 2321.35 125.244 2321.35C141.846 2321.35 155.68 2323.71 166.748 2328.43C177.979 2332.98 186.93 2339.33 193.604 2347.47C200.439 2355.44 205.241 2364.8 208.008 2375.54C210.938 2386.29 212.402 2397.68 212.402 2409.72C212.402 2418.68 211.914 2426.98 210.938 2434.63C210.124 2442.11 208.822 2450.41 207.031 2459.53H155.762V2438.29C155.762 2415.34 153.239 2398.17 148.193 2386.78C143.148 2375.38 135.742 2369.69 125.977 2369.69C120.117 2369.69 114.99 2370.82 110.596 2373.1C106.201 2375.38 102.539 2379.29 99.6094 2384.82C96.6797 2390.19 94.401 2397.35 92.7734 2406.31C91.3086 2415.26 90.5762 2426.41 90.5762 2439.75V2630.18C90.5762 2643.2 91.1458 2654.03 92.2852 2662.65C93.5872 2671.28 95.6217 2678.2 98.3887 2683.41C101.156 2688.61 104.736 2692.36 109.131 2694.64C113.688 2696.75 119.141 2697.81 125.488 2697.81C129.557 2697.81 133.464 2696.92 137.207 2695.12C140.951 2693.17 144.206 2690.24 146.973 2686.34C149.902 2682.27 152.181 2677.22 153.809 2671.2C155.599 2665.01 156.494 2657.77 156.494 2649.47V2608.7H214.355V2647.27C214.355 2680.8 206.706 2705.54 191.406 2721.49C176.107 2737.44 154.134 2745.5 125.488 2745.66ZM260.254 2297.91H322.021V2377.01L318.848 2434.63C323.405 2428.28 328.288 2423.07 333.496 2419C338.867 2414.77 344.32 2411.43 349.854 2408.99C355.55 2406.39 361.247 2404.6 366.943 2403.62C372.803 2402.48 378.581 2401.91 384.277 2401.91C403.971 2401.91 419.108 2408.83 429.688 2422.66C440.43 2436.34 445.801 2456.93 445.801 2484.43V2742H384.033V2486.63C384.033 2471.82 381.755 2461.56 377.197 2455.87C372.64 2450.01 365.967 2447.08 357.178 2447.08C350.993 2447.08 344.727 2449.19 338.379 2453.43C332.194 2457.49 326.742 2463.19 322.021 2470.52V2742H260.254V2297.91ZM510.254 2405.82H572.021V2658.5C572.021 2673.32 574.3 2683.65 578.857 2689.51C583.415 2695.21 590.088 2698.05 598.877 2698.05C605.062 2698.05 611.084 2696.35 616.943 2692.93C622.803 2689.51 628.092 2684.63 632.812 2678.28V2405.82H694.58V2742H647.461L641.357 2706.11H641.113C636.23 2713.76 631.022 2720.19 625.488 2725.4C620.117 2730.44 614.421 2734.51 608.398 2737.61C602.539 2740.54 596.517 2742.65 590.332 2743.95C584.147 2745.26 577.962 2745.91 571.777 2745.91C552.083 2745.91 536.865 2739.07 526.123 2725.4C515.544 2711.73 510.254 2691.06 510.254 2663.39V2405.82ZM759.277 2405.82H804.443L809.814 2440C816.65 2427.3 824.463 2417.78 833.252 2411.43C842.204 2405.09 851.318 2401.91 860.596 2401.91C878.337 2401.91 891.439 2407.36 899.902 2418.27C908.366 2429.17 912.598 2445.53 912.598 2467.34C912.598 2470.11 912.354 2473.45 911.865 2477.35C911.54 2481.1 910.97 2485.08 910.156 2489.31C909.505 2493.38 908.61 2497.53 907.471 2501.77C906.494 2505.83 905.436 2509.58 904.297 2513H861.328V2481.75C861.328 2474.91 860.84 2469.29 859.863 2464.9C859.049 2460.51 857.91 2457.01 856.445 2454.4C854.98 2451.64 853.271 2449.76 851.318 2448.79C849.365 2447.65 847.249 2447.08 844.971 2447.08C840.088 2447.08 835.531 2448.71 831.299 2451.96C827.23 2455.05 823.812 2459.45 821.045 2465.14V2742H759.277V2405.82ZM1030.03 2745.66C1001.71 2745.66 980.062 2734.02 965.088 2710.75C950.277 2687.48 942.871 2651.99 942.871 2604.3V2540.83C942.871 2519.51 944.417 2501.28 947.51 2486.14C950.602 2470.84 954.671 2458.06 959.717 2447.81C964.925 2437.39 970.785 2429.17 977.295 2423.15C983.968 2417.13 990.804 2412.57 997.803 2409.48C1004.8 2406.23 1011.72 2404.19 1018.55 2403.38C1025.39 2402.4 1031.66 2401.91 1037.35 2401.91C1048.75 2401.91 1059.16 2403.46 1068.6 2406.55C1078.04 2409.48 1086.18 2414.04 1093.02 2420.22C1099.85 2426.24 1105.14 2433.89 1108.89 2443.17C1112.63 2452.45 1114.5 2463.35 1114.5 2475.89C1114.5 2483.7 1114.1 2490.45 1113.28 2496.15C1112.63 2501.68 1111.65 2507.06 1110.35 2512.26H1061.04V2501.03C1061.04 2484.11 1059 2470.92 1054.93 2461.48C1051.03 2451.88 1044.51 2447.08 1035.4 2447.08C1030.35 2447.08 1025.96 2448.3 1022.22 2450.74C1018.47 2453.02 1015.3 2457.01 1012.7 2462.7C1010.25 2468.4 1008.38 2476.05 1007.08 2485.65C1005.94 2495.26 1005.37 2507.3 1005.37 2521.79V2617.24C1005.37 2631.89 1005.86 2644.34 1006.84 2654.6C1007.81 2664.85 1009.52 2673.23 1011.96 2679.74C1014.4 2686.09 1017.66 2690.73 1021.73 2693.66C1025.8 2696.59 1030.84 2698.05 1036.87 2698.05C1039.96 2698.05 1042.97 2697.32 1045.9 2695.86C1048.83 2694.23 1051.35 2691.63 1053.47 2688.04C1055.75 2684.46 1057.54 2679.74 1058.84 2673.88C1060.3 2667.86 1061.04 2660.46 1061.04 2651.67V2641.17H1114.26V2654.11C1114.26 2686.01 1107.18 2709.29 1093.02 2723.93C1079.02 2738.42 1058.02 2745.66 1030.03 2745.66ZM1164.55 2297.91H1226.32V2377.01L1223.14 2434.63C1227.7 2428.28 1232.58 2423.07 1237.79 2419C1243.16 2414.77 1248.62 2411.43 1254.15 2408.99C1259.85 2406.39 1265.54 2404.6 1271.24 2403.62C1277.1 2402.48 1282.88 2401.91 1288.57 2401.91C1308.27 2401.91 1323.4 2408.83 1333.98 2422.66C1344.73 2436.34 1350.1 2456.93 1350.1 2484.43V2742H1288.33V2486.63C1288.33 2471.82 1286.05 2461.56 1281.49 2455.87C1276.94 2450.01 1270.26 2447.08 1261.47 2447.08C1255.29 2447.08 1249.02 2449.19 1242.68 2453.43C1236.49 2457.49 1231.04 2463.19 1226.32 2470.52V2742H1164.55V2297.91Z" fill="#EB6B56"/>
<rect x="1378" y="2246" width="1226" height="597" fill="#EB6B56"/>
<path d="M1418.03 2333.01H1478.58L1506.66 2584.96L1509.83 2643.8H1515.93L1521.79 2577.64L1566.71 2333.01H1617.25L1660.22 2577.64L1665.1 2643.8H1671.45L1674.38 2584.96L1700.02 2333.01H1760.81L1702.46 2750H1638.25L1603.82 2549.56L1593.08 2462.4H1588.2L1577.7 2549.56L1541.57 2750H1478.09L1418.03 2333.01ZM1886.78 2753.66C1879.62 2753.66 1872.3 2753.09 1864.81 2751.95C1857.49 2750.81 1850.32 2748.45 1843.33 2744.87C1836.49 2741.29 1829.98 2736.17 1823.79 2729.49C1817.77 2722.82 1812.48 2714.03 1807.93 2703.12C1803.37 2692.22 1799.79 2678.79 1797.18 2662.84C1794.58 2646.89 1793.28 2627.85 1793.28 2605.71V2552.98C1793.28 2531.17 1794.58 2512.53 1797.18 2497.07C1799.95 2481.45 1803.61 2468.34 1808.17 2457.76C1812.89 2447.18 1818.34 2438.8 1824.53 2432.62C1830.71 2426.27 1837.22 2421.47 1844.06 2418.21C1851.06 2414.79 1858.22 2412.6 1865.54 2411.62C1872.87 2410.48 1880.03 2409.91 1887.03 2409.91C1893.7 2409.91 1900.62 2410.4 1907.78 2411.38C1914.94 2412.35 1921.94 2414.47 1928.78 2417.72C1935.61 2420.82 1942.04 2425.54 1948.06 2431.88C1954.25 2438.07 1959.62 2446.45 1964.18 2457.03C1968.9 2467.61 1972.56 2480.79 1975.16 2496.58C1977.93 2512.21 1979.31 2531.01 1979.31 2552.98V2605.71C1979.31 2627.52 1977.93 2646.32 1975.16 2662.11C1972.4 2677.9 1968.65 2691.24 1963.93 2702.15C1959.21 2713.05 1953.76 2721.92 1947.57 2728.76C1941.39 2735.43 1934.88 2740.64 1928.04 2744.38C1921.21 2748.13 1914.21 2750.57 1907.05 2751.71C1900.05 2753.01 1893.29 2753.66 1886.78 2753.66ZM1887.27 2706.05C1892.81 2706.05 1897.44 2704.67 1901.19 2701.9C1905.09 2698.97 1908.19 2694.25 1910.46 2687.74C1912.91 2681.23 1914.62 2672.69 1915.59 2662.11C1916.73 2651.37 1917.3 2638.1 1917.3 2622.31V2539.55C1917.3 2523.76 1916.73 2510.5 1915.59 2499.76C1914.62 2489.01 1912.91 2480.39 1910.46 2473.88C1908.19 2467.2 1905.09 2462.4 1901.19 2459.47C1897.44 2456.54 1892.81 2455.08 1887.27 2455.08C1881.41 2455.08 1876.45 2456.54 1872.38 2459.47C1868.47 2462.4 1865.22 2467.2 1862.61 2473.88C1860.01 2480.39 1858.14 2489.01 1857 2499.76C1855.86 2510.5 1855.29 2523.76 1855.29 2539.55V2622.31C1855.29 2638.1 1855.86 2651.37 1857 2662.11C1858.14 2672.69 1860.01 2681.23 1862.61 2687.74C1865.22 2694.25 1868.47 2698.97 1872.38 2701.9C1876.45 2704.67 1881.41 2706.05 1887.27 2706.05ZM2034 2413.82H2079.17L2084.54 2448C2091.37 2435.3 2099.19 2425.78 2107.97 2419.43C2116.93 2413.09 2126.04 2409.91 2135.32 2409.91C2153.06 2409.91 2166.16 2415.36 2174.62 2426.27C2183.09 2437.17 2187.32 2453.53 2187.32 2475.34C2187.32 2478.11 2187.08 2481.45 2186.59 2485.35C2186.26 2489.1 2185.69 2493.08 2184.88 2497.31C2184.23 2501.38 2183.33 2505.53 2182.19 2509.77C2181.22 2513.83 2180.16 2517.58 2179.02 2521H2136.05V2489.75C2136.05 2482.91 2135.56 2477.29 2134.59 2472.9C2133.77 2468.51 2132.63 2465.01 2131.17 2462.4C2129.7 2459.64 2127.99 2457.76 2126.04 2456.79C2124.09 2455.65 2121.97 2455.08 2119.69 2455.08C2114.81 2455.08 2110.25 2456.71 2106.02 2459.96C2101.95 2463.05 2098.53 2467.45 2095.77 2473.14V2750H2034V2413.82ZM2227.36 2305.91H2289.13V2750H2227.36V2305.91ZM2418.28 2753.91C2414.53 2753.91 2410.14 2753.5 2405.09 2752.69C2400.05 2752.03 2394.84 2750.41 2389.47 2747.8C2384.1 2745.2 2378.81 2741.29 2373.6 2736.08C2368.39 2730.88 2363.75 2723.8 2359.68 2714.84C2355.61 2705.73 2352.28 2694.5 2349.67 2681.15C2347.23 2667.81 2346.01 2651.61 2346.01 2632.57V2525.88C2346.01 2507 2347.31 2491.05 2349.92 2478.03C2352.68 2465.01 2356.27 2454.26 2360.66 2445.8C2365.05 2437.17 2369.94 2430.5 2375.31 2425.78C2380.84 2420.9 2386.29 2417.32 2391.67 2415.04C2397.2 2412.76 2402.41 2411.38 2407.29 2410.89C2412.34 2410.4 2416.49 2410.16 2419.74 2410.16C2425.76 2410.16 2431.46 2410.97 2436.83 2412.6C2442.2 2414.23 2447.09 2416.42 2451.48 2419.19C2455.88 2421.79 2459.78 2424.8 2463.2 2428.22C2466.62 2431.48 2469.47 2434.81 2471.74 2438.23L2471.99 2437.99L2470.04 2395.51V2305.91H2531.56V2750H2483.46L2478.09 2718.75C2475.32 2723.14 2472.15 2727.46 2468.57 2731.69C2464.99 2735.92 2460.76 2739.75 2455.88 2743.16C2450.99 2746.42 2445.46 2749.02 2439.27 2750.98C2433.09 2752.93 2426.09 2753.91 2418.28 2753.91ZM2439.27 2706.05C2443.34 2706.05 2446.92 2705.4 2450.02 2704.1C2453.27 2702.64 2456.12 2700.85 2458.56 2698.73C2461.16 2696.45 2463.36 2693.85 2465.15 2690.92C2467.11 2687.99 2468.73 2684.98 2470.04 2681.88V2479.74C2466.94 2472.9 2462.79 2467.12 2457.58 2462.4C2452.54 2457.52 2446.35 2455.08 2439.03 2455.08C2434.47 2455.08 2430.32 2455.89 2426.58 2457.52C2422.83 2459.15 2419.58 2462.24 2416.81 2466.8C2414.05 2471.19 2411.85 2477.38 2410.22 2485.35C2408.76 2493.16 2408.02 2503.34 2408.02 2515.87V2644.78C2408.02 2657.31 2408.76 2667.56 2410.22 2675.54C2411.85 2683.51 2414.05 2689.78 2416.81 2694.34C2419.58 2698.73 2422.83 2701.82 2426.58 2703.61C2430.48 2705.24 2434.72 2706.05 2439.27 2706.05Z" fill="white"/>
<circle cx="1302.33" cy="1071.68" r="1066.68" fill="white" stroke="#EB6B56" stroke-width="10"/>
<path d="M2038.02 983.34C2094.5 1016.17 2167.4 996.856 2200.22 939.893C2233.05 883.413 2213.74 810.519 2156.78 777.693C2100.3 744.866 2027.4 764.176 1994.58 821.139C1962.23 878.103 1981.54 950.513 2038.02 983.34Z" fill="#EB6B56"/>
<path d="M1805.83 1384.5C1862.31 1417.32 1935.2 1398.01 1968.03 1341.05C2000.85 1284.57 1981.54 1211.68 1924.58 1178.85C1868.1 1146.02 1795.21 1165.33 1762.38 1222.3C1730.04 1279.26 1749.35 1351.67 1805.83 1384.5Z" fill="#EB6B56"/>
<path d="M1575.56 1782.76C1632.04 1815.58 1704.93 1796.28 1737.76 1739.31C1770.58 1682.83 1751.28 1609.94 1694.31 1577.11C1637.83 1544.29 1564.94 1563.59 1532.11 1620.56C1499.29 1677.52 1518.59 1749.93 1575.56 1782.76Z" fill="#EB6B56"/>
<path d="M913.724 1580.49C856.761 1613.32 837.451 1685.73 870.278 1742.69C903.104 1799.65 975.515 1818.96 1032.48 1786.14C1089.44 1753.31 1108.75 1680.9 1075.92 1623.94C1043.1 1566.97 970.687 1547.66 913.724 1580.49Z" fill="#EB6B56"/>
<path d="M682.49 1178.85C625.527 1211.68 606.218 1284.09 639.044 1341.05C671.87 1398.01 744.281 1417.32 801.244 1384.5C858.208 1351.67 877.517 1279.26 844.691 1222.3C811.865 1165.33 739.454 1146.02 682.49 1178.85Z" fill="#EB6B56"/>
<path d="M452.708 779.625C395.745 812.451 376.435 884.862 409.261 941.825C442.088 998.789 514.498 1018.1 571.462 985.272C628.425 952.446 647.734 880.035 614.908 823.071C582.082 766.591 509.671 747.281 452.708 779.625Z" fill="#EB6B56"/>
<path d="M2391.87 963.064C2370.15 698.523 2229.67 437.361 2024.02 276.608L2008.58 290.125C2015.82 299.297 2023.06 308.469 2030.3 317.159C2037.06 326.331 2051.06 345.64 2058.3 355.778L2063.61 363.501L2074.23 379.432C2088.71 401.638 2102.71 424.327 2115.74 447.498C2115.74 448.464 2116.23 449.429 2116.71 450.395C2148.57 501.082 2179.47 591.355 2203.12 670.524C2218.57 720.729 2230.15 774.796 2236.91 812.932C2239.81 835.621 2242.22 858.309 2243.67 880.998C2242.22 914.79 2233.05 942.789 2225.33 956.306C2188.64 1020.03 2111.4 1046.58 2044.78 1022.44C2036.58 1019.54 2028.37 1015.68 2020.65 1011.34C2013.4 1006.99 1737.76 822.104 1703.97 811.484C1703.97 811.484 1653.28 785.416 1628.66 823.07L1628.18 823.552C1627.7 824.035 1627.7 824.518 1627.21 825.483C1626.73 825.966 1626.25 826.449 1626.25 827.414C1605.01 867.482 1648.94 902.239 1648.94 902.239C1675.97 926.858 1759.48 991.546 1817.41 1039.82C1875.34 1088.09 1971.41 1165.81 1988.3 1191.4C2015.82 1233.4 2022.09 1287.46 2002.78 1335.74C2000.37 1342.98 1997.47 1349.74 1993.61 1356.98C1989.27 1363.74 1984.92 1369.53 1979.61 1375.32C1947.27 1416.36 1897.55 1437.6 1847.34 1434.7C1816.93 1432.29 1701.55 1387.87 1630.59 1361.81C1577.49 1342.5 1509.42 1314.98 1464.05 1297.6L1476.6 1434.22C1572.66 1484.91 1703 1549.11 1707.83 1552.01C1715.55 1556.35 1722.79 1561.66 1729.55 1567.45C1783.62 1613.31 1799.07 1693.45 1762.38 1757.17C1754.66 1770.2 1736.31 1790.48 1710.24 1808.34C1681.28 1822.34 1650.87 1835.37 1620.45 1845.99C1359.77 1937.72 1098.13 1908.75 881.863 1797.24C863.519 1782.76 850.967 1767.31 844.692 1757.17C808.004 1693.45 823.451 1613.8 878.001 1567.94C884.759 1562.14 892 1557.32 899.724 1552.49C904.551 1549.59 1038.27 1483.94 1134.82 1433.25L1147.37 1297.6C1101.99 1314.5 1031.51 1342.98 977.445 1362.77C906.482 1388.84 791.108 1432.77 760.695 1435.18C710.49 1438.08 660.768 1416.36 628.425 1375.32C623.597 1369.53 618.77 1363.74 614.425 1356.98C611.046 1350.22 607.666 1342.98 605.253 1335.74C585.943 1287.46 592.219 1233.4 619.735 1191.4C637.114 1165.81 733.179 1088.09 791.107 1040.3C849.036 992.028 933.033 927.341 960.066 903.204C960.066 903.204 1004.48 868.93 983.238 828.38C982.755 827.897 982.755 827.414 982.272 826.449C981.79 825.966 981.79 825.483 981.307 824.518L980.824 824.035C980.342 824.518 979.859 825 979.376 825C979.859 824.518 980.342 824.035 980.824 824.035C956.205 786.381 905.517 812.449 905.517 812.449C871.725 823.069 595.598 1007.48 588.357 1011.82C580.633 1016.17 572.426 1020.03 564.22 1022.92C497.119 1047.06 420.364 1020.51 383.676 956.788C377.883 946.651 371.124 928.307 367.745 905.618C369.676 850.586 375.952 795.553 387.055 741.487C392.365 718.315 399.123 694.178 406.364 670.524C423.26 615.009 443.535 563.356 456.569 526.185C475.396 484.186 496.636 443.636 520.773 404.534C544.91 364.467 572.427 326.331 601.391 289.642L591.254 280.953C430.501 405.5 307.885 591.355 253.819 795.553C70.3775 1487.32 616.356 2151.09 1325.02 2138.53C1948.72 2130.81 2453.18 1587.25 2391.87 963.064Z" fill="#EB6B56"/>
<path d="M808.004 519.428L1032 572.046C1059.99 481.291 1131.92 409.363 1222.68 381.364L1170.06 157.373L1308.12 0L1446.19 157.373L1393.57 381.847C1484.32 409.846 1556.25 481.774 1584.25 572.529L1808.24 519.91L1965.61 657.974L1808.24 796.037L1584.25 743.419C1552.39 846.725 1463.56 925.411 1354.47 943.273L1446.19 1946.89L1308.12 2104.26L1170.06 1946.89L1261.78 943.273C1153.16 925.411 1064.34 846.725 1032 743.419L808.004 796.037L650.631 657.974L808.004 519.428Z" fill="white"/>
<path d="M1036.77 741.462L1035.4 737.01L1030.86 738.066L809.372 789.62L658.213 657.008L809.362 524.405L1030.84 576.911L1035.39 577.99L1036.77 573.52C1064.28 484.345 1134.98 413.653 1224.15 386.142L1228.61 384.766L1227.55 380.221L1175.52 158.736L1308.12 7.5817L1440.73 158.735L1388.7 380.221L1387.63 384.766L1392.09 386.142C1481.27 413.653 1551.96 484.345 1579.47 573.52L1580.85 577.981L1585.39 576.914L1806.88 524.884L1958.03 657.491L1806.88 790.098L1585.39 738.068L1580.87 737.005L1579.48 741.442C1547.69 842.977 1460.86 920.305 1353.66 937.856L1349.06 938.608L1349.49 943.245L1441.01 1944.72L1308.12 2096.2L1175.23 1944.72L1266.76 943.245L1267.18 938.608L1262.59 937.856C1155.37 920.303 1068.08 842.966 1036.77 741.462ZM1099.4 722.138L1094.08 723.389L1095.8 728.577C1120.99 804.655 1186.67 862.403 1267.12 877.705L1272.53 878.734L1273.03 873.25L1290.41 684.016L1291.05 677.104L1284.29 678.692L1099.4 722.138ZM1343.21 873.25L1343.71 878.734L1349.12 877.705C1429.6 862.4 1494.76 804.641 1520.44 728.605L1522.2 723.396L1516.84 722.138L1331.95 678.692L1325.2 677.104L1325.83 684.016L1343.21 873.25ZM1516.85 592.844L1522.17 591.59L1520.44 586.395C1498.22 519.719 1445.39 467.391 1379.23 445.173L1374.03 443.426L1372.77 448.768L1330.29 629.312L1328.44 637.175L1336.3 635.325L1516.85 592.844ZM1243.47 448.768L1242.22 443.438L1237.03 445.17C1170.36 467.391 1118.02 519.733 1095.8 586.395L1094.07 591.59L1099.4 592.844L1279.94 635.325L1287.81 637.175L1285.96 629.312L1243.47 448.768Z" fill="#EB6B56" stroke="white" stroke-width="10"/>
</svg>
