<svg width="859" height="561" viewBox="0 0 859 561" fill="none" xmlns="http://www.w3.org/2000/svg">
<rect x="446" y="468" width="413" height="93" fill="#EB6B56"/>
<path d="M0.300049 516.5C0.300049 495.8 16.2 481 37.6 481C49.5 481 59.4001 485.3 65.9001 493.2L55.7001 502.6C51.1001 497.3 45.3001 494.6 38.4001 494.6C25.5001 494.6 16.4001 503.6 16.4001 516.6C16.4001 529.6 25.5001 538.6 38.4001 538.6C45.3001 538.6 51.1001 535.9 55.7001 530.5L65.9001 539.9C59.4001 547.9 49.5001 552.2 37.5001 552.2C16.2001 552 0.300049 537.2 0.300049 516.5Z" fill="#EB6B56"/>
<path d="M139.6 482.1V550.8H123.7V522.6H92.5001V550.8H76.6001V482.1H92.5001V509.2H123.7V482.1H139.6Z" fill="#EB6B56"/>
<path d="M155.3 520.6V482.1H171.2V520C171.2 533.1 176.9 538.5 186.5 538.5C196.2 538.5 201.8 533.1 201.8 520V482.1H217.5V520.6C217.5 540.8 205.9 552 186.4 552C166.9 552 155.3 540.8 155.3 520.6Z" fill="#EB6B56"/>
<path d="M277.1 550.8L263.8 531.7H263H249.2V550.8H233.3V482.1H263C281.4 482.1 292.8 491.6 292.8 507C292.8 517.3 287.6 524.9 278.7 528.7L294.1 550.8H277.1ZM262.1 495.1H249.1V519.1H262.1C271.8 519.1 276.7 514.6 276.7 507.1C276.8 499.5 271.9 495.1 262.1 495.1Z" fill="#EB6B56"/>
<path d="M301.1 516.5C301.1 495.8 317 481 338.4 481C350.3 481 360.2 485.3 366.7 493.2L356.5 502.6C351.9 497.3 346.1 494.6 339.2 494.6C326.3 494.6 317.2 503.6 317.2 516.6C317.2 529.6 326.3 538.6 339.2 538.6C346.1 538.6 351.9 535.9 356.5 530.5L366.7 539.9C360.2 547.9 350.3 552.2 338.3 552.2C317 552 301.1 537.2 301.1 516.5Z" fill="#EB6B56"/>
<path d="M440.4 482.1V550.8H424.5V522.6H393.3V550.8H377.4V482.1H393.3V509.2H424.5V482.1H440.4Z" fill="#EB6B56"/>
<path d="M560.2 482.1L537.7 550.8H520.6L505.5 504.3L489.9 550.8H472.9L450.3 482.1H466.8L482.3 530.4L498.5 482.1H513.2L528.9 530.8L544.9 482.1H560.2Z" fill="white"/>
<path d="M563.9 516.5C563.9 496.1 579.8 481 601.5 481C623.1 481 639.1 496 639.1 516.5C639.1 537 623.1 552 601.5 552C579.8 552 563.9 536.9 563.9 516.5ZM623 516.5C623 503.4 613.8 494.5 601.5 494.5C589.2 494.5 580 503.4 580 516.5C580 529.6 589.2 538.5 601.5 538.5C613.8 538.5 623 529.5 623 516.5Z" fill="white"/>
<path d="M694.9 550.8L681.6 531.7H680.8H667V550.8H651.1V482.1H680.8C699.2 482.1 710.6 491.6 710.6 507C710.6 517.3 705.4 524.9 696.5 528.7L711.9 550.8H694.9ZM680 495.1H667V519.1H680C689.7 519.1 694.6 514.6 694.6 507.1C694.6 499.5 689.7 495.1 680 495.1Z" fill="white"/>
<path d="M723.3 482.1H739.2V537.9H773.7V550.9H723.3V482.1Z" fill="white"/>
<path d="M782.6 482.1H813.8C836.3 482.1 851.7 495.6 851.7 516.5C851.7 537.4 836.3 550.9 813.8 550.9H782.6V482.1ZM813 537.8C826.6 537.8 835.6 529.7 835.6 516.5C835.6 503.3 826.7 495.2 813 495.2H798.5V537.8H813Z" fill="white"/>
<circle cx="425" cy="222" r="220.5" fill="white" stroke="#EB6B56" stroke-width="3"/>
<path d="M577.4 203.7C589.1 210.5 604.2 206.5 611 194.7C617.8 183 613.8 167.9 602 161.1C590.3 154.3 575.2 158.3 568.4 170.1C561.7 181.9 565.7 196.9 577.4 203.7Z" fill="#EB6B56"/>
<path d="M529.3 286.8C541 293.6 556.1 289.6 562.9 277.8C569.7 266.1 565.7 251 553.9 244.2C542.2 237.4 527.1 241.4 520.3 253.2C513.6 265 517.6 280 529.3 286.8Z" fill="#EB6B56"/>
<path d="M481.6 369.3C493.3 376.1 508.4 372.1 515.2 360.3C522 348.6 518 333.5 506.2 326.7C494.5 319.9 479.4 323.9 472.6 335.7C465.8 347.5 469.8 362.5 481.6 369.3Z" fill="#EB6B56"/>
<path d="M344.5 327.4C332.7 334.2 328.7 349.2 335.5 361C342.3 372.8 357.3 376.8 369.1 370C380.9 363.2 384.9 348.2 378.1 336.4C371.3 324.6 356.3 320.6 344.5 327.4Z" fill="#EB6B56"/>
<path d="M296.6 244.2C284.8 251 280.8 266 287.6 277.8C294.4 289.6 309.4 293.6 321.2 286.8C333 280 337 265 330.2 253.2C323.4 241.4 308.4 237.4 296.6 244.2Z" fill="#EB6B56"/>
<path d="M249 161.5C237.2 168.3 233.2 183.3 240 195.1C246.8 206.9 261.8 210.9 273.6 204.1C285.4 197.3 289.4 182.3 282.6 170.5C275.8 158.8 260.8 154.8 249 161.5Z" fill="#EB6B56"/>
<path d="M650.7 199.5C646.2 144.7 617.1 90.6 574.5 57.3L571.3 60.1001C572.8 62.0001 574.3 63.9001 575.8 65.7001C577.2 67.6001 580.1 71.6001 581.6 73.7001L582.7 75.3L584.9 78.6001C587.9 83.2001 590.8 87.9001 593.5 92.7001C593.5 92.9001 593.6 93.1 593.7 93.3C600.3 103.8 606.7 122.5 611.6 138.9C614.8 149.3 617.2 160.5 618.6 168.4C619.2 173.1 619.7 177.8 620 182.5C619.7 189.5 617.8 195.3 616.2 198.1C608.6 211.3 592.6 216.8 578.8 211.8C577.1 211.2 575.4 210.4 573.8 209.5C572.3 208.6 515.2 170.3 508.2 168.1C508.2 168.1 497.7 162.7 492.6 170.5L492.5 170.6C492.4 170.7 492.4 170.8 492.3 171C492.2 171.1 492.1 171.2 492.1 171.4C487.7 179.7 496.8 186.9 496.8 186.9C502.4 192 519.7 205.4 531.7 215.4C543.7 225.4 563.6 241.5 567.1 246.8C572.8 255.5 574.1 266.7 570.1 276.7C569.6 278.2 569 279.6 568.2 281.1C567.3 282.5 566.4 283.7 565.3 284.9C558.6 293.4 548.3 297.8 537.9 297.2C531.6 296.7 507.7 287.5 493 282.1C482 278.1 467.9 272.4 458.5 268.8L461.1 297.1C481 307.6 508 320.9 509 321.5C510.6 322.4 512.1 323.5 513.5 324.7C524.7 334.2 527.9 350.8 520.3 364C518.7 366.7 514.9 370.9 509.5 374.6C503.5 377.5 497.2 380.2 490.9 382.4C436.9 401.4 382.7 395.4 337.9 372.3C334.1 369.3 331.5 366.1 330.2 364C322.6 350.8 325.8 334.3 337.1 324.8C338.5 323.6 340 322.6 341.6 321.6C342.6 321 370.3 307.4 390.3 296.9L392.9 268.8C383.5 272.3 368.9 278.2 357.7 282.3C343 287.7 319.1 296.8 312.8 297.3C302.4 297.9 292.1 293.4 285.4 284.9C284.4 283.7 283.4 282.5 282.5 281.1C281.8 279.7 281.1 278.2 280.6 276.7C276.6 266.7 277.9 255.5 283.6 246.8C287.2 241.5 307.1 225.4 319.1 215.5C331.1 205.5 348.5 192.1 354.1 187.1C354.1 187.1 363.3 180 358.9 171.6C358.8 171.5 358.8 171.4 358.7 171.2C358.6 171.1 358.6 171 358.5 170.8L358.4 170.7C358.3 170.8 358.2 170.9 358.1 170.9C358.2 170.8 358.3 170.7 358.4 170.7C353.3 162.9 342.8 168.3 342.8 168.3C335.8 170.5 278.6 208.7 277.1 209.6C275.5 210.5 273.8 211.3 272.1 211.9C258.2 216.9 242.3 211.4 234.7 198.2C233.5 196.1 232.1 192.3 231.4 187.6C231.8 176.2 233.1 164.8 235.4 153.6C236.5 148.8 237.9 143.8 239.4 138.9C242.9 127.4 247.1 116.7 249.8 109C253.7 100.3 258.1 91.9 263.1 83.8C268.1 75.5 273.8 67.6001 279.8 60.0001L277.7 58.2001C244.4 84.0001 219 122.5 207.8 164.8C169.8 308.1 282.9 445.6 429.7 443C558.9 441.4 663.4 328.8 650.7 199.5Z" fill="#EB6B56"/>
<path d="M322.6 107.6L369 118.5C374.8 99.7 389.7 84.8 408.5 79L397.6 32.6L426.2 0L454.8 32.6L443.9 79.1C462.7 84.9 477.6 99.8 483.4 118.6L529.8 107.7L562.4 136.3L529.8 164.9L483.4 154C476.8 175.4 458.4 191.7 435.8 195.4L454.8 403.3L426.2 435.9L397.6 403.3L416.6 195.4C394.1 191.7 375.7 175.4 369 154L322.6 164.9L290 136.3L322.6 107.6Z" fill="white"/>
<path d="M369.956 153.605L369.681 152.715L368.773 152.926L322.873 163.61L291.516 136.1L322.871 108.592L368.769 119.473L369.68 119.689L369.956 118.795C375.658 100.311 390.311 85.6581 408.795 79.9556L409.687 79.6803L409.474 78.7713L398.691 32.8725L426.2 1.51634L453.709 32.8725L442.926 78.7713L442.713 79.6803L443.605 79.9556C462.089 85.6581 476.742 100.311 482.444 118.795L482.72 119.687L483.629 119.474L529.527 108.691L560.884 136.2L529.527 163.709L483.629 152.926L482.723 152.714L482.446 153.601C475.857 174.647 457.859 190.675 435.638 194.313L434.719 194.464L434.804 195.391L453.765 402.863L426.2 434.284L398.635 402.863L417.596 195.391L417.681 194.464L416.762 194.313C394.538 190.675 376.444 174.645 369.956 153.605ZM382.971 149.627L381.907 149.877L382.251 150.914C387.466 166.662 401.059 178.615 417.713 181.782L418.795 181.988L418.896 180.891L422.496 141.691L422.623 140.309L421.271 140.627L382.971 149.627ZM433.504 180.891L433.605 181.988L434.687 181.782C451.345 178.614 464.833 166.659 470.147 150.92L470.499 149.878L469.429 149.627L431.129 140.627L429.777 140.309L429.904 141.691L433.504 180.891ZM469.429 122.773L470.495 122.523L470.149 121.484C465.548 107.683 454.613 96.8509 440.918 92.252L439.878 91.9026L439.627 92.971L430.827 130.371L430.457 131.943L432.029 131.573L469.429 122.773ZM412.773 92.971L412.523 91.9051L411.484 92.2513C397.685 96.8509 386.851 107.685 382.251 121.484L381.905 122.523L382.971 122.773L420.371 131.573L421.943 131.943L421.573 130.371L412.773 92.971Z" fill="#EB6B56" stroke="white" stroke-width="2"/>
</svg>
