<?xml version="1.0" encoding="UTF-8" standalone="no"?>
<!DOCTYPE svg PUBLIC "-//W3C//DTD SVG 1.1//EN" "http://www.w3.org/Graphics/SVG/1.1/DTD/svg11.dtd">
<!-- Created with Vectornator (http://vectornator.io/) -->
<svg height="100%" stroke-miterlimit="10" style="fill-rule:nonzero;clip-rule:evenodd;stroke-linecap:round;stroke-linejoin:round;" version="1.1" viewBox="0 0 405.734 85.4645" width="100%" xml:space="preserve" xmlns="http://www.w3.org/2000/svg" xmlns:vectornator="http://vectornator.io" xmlns:xlink="http://www.w3.org/1999/xlink">
<defs>
<radialGradient cx="206.057" cy="38.993" gradientTransform="matrix(1 0 0 1 0 0)" gradientUnits="userSpaceOnUse" id="RadialGradient" r="213.309">
<stop offset="0" stop-color="#505050"/>
<stop offset="1" stop-color="#000000"/>
</radialGradient>
<clipPath id="TextBounds">
<rect height="123" width="65.0981" x="84.9625" y="-19.7443"/>
</clipPath>
<clipPath id="TextBounds_2">
<rect height="123" width="58.9006" x="135.656" y="-19.7443"/>
</clipPath>
<clipPath id="TextBounds_3">
<rect height="123" width="61.146" x="180.987" y="-18.5657"/>
</clipPath>
<clipPath id="TextBounds_4">
<rect height="245" width="58.8947" x="255.61" y="-18.123"/>
</clipPath>
<clipPath id="TextBounds_5">
<rect height="245" width="58.8371" x="213.343" y="-18.877"/>
</clipPath>
<clipPath id="TextBounds_6">
<rect height="123" width="61.0489" x="306.426" y="-19.1775"/>
</clipPath>
<clipPath id="TextBounds_7">
<rect height="123" width="47.1323" x="357.342" y="-19.9962"/>
</clipPath>
</defs>
<clipPath id="ArtboardFrame">
<rect height="85.4645" width="405.734" x="0" y="0"/>
</clipPath>
<g clip-path="url(#ArtboardFrame)" id="c" vectornator:layerName="c">
<path d="M-7.25165-13.0487L419.365-13.0487L419.365 91.0347L-7.25165 91.0347L-7.25165-13.0487Z" fill="url(#RadialGradient)" fill-rule="nonzero" opacity="0" stroke="none"/>
<path clip-path="url(#TextBounds)" d="M105.243 33.635C107.279 31.7349 109.518 30.191 111.961 29.0034C114.404 27.8159 117.272 27.2221 120.563 27.2221C123.413 27.2221 125.941 27.7056 128.146 28.6726C130.352 29.6396 132.193 30.9969 133.669 32.7443C135.144 34.4917 136.264 36.5785 137.028 39.0045C137.791 41.4305 138.173 44.1026 138.173 47.0206L138.173 80.2557L125.601 80.2557L125.601 47.0206C125.601 43.8311 124.872 41.3627 123.413 39.6153C121.954 37.8678 119.731 36.9941 116.746 36.9941C114.574 36.9941 112.538 37.4861 110.638 38.4701C108.738 39.4541 106.94 40.7943 105.243 42.4909L105.243 80.2557L92.6718 80.2557L92.6718 4.62425L105.243 4.62425L105.243 33.635Z" fill="#ffffff" opacity="1" stroke="none"/>
<path clip-path="url(#TextBounds_2)" d="M170.95 57.9633C167.32 58.1329 164.266 58.4468 161.789 58.9048C159.312 59.3629 157.327 59.9482 155.834 60.6608C154.341 61.3733 153.273 62.2046 152.628 63.1547C151.983 64.1047 151.661 65.1396 151.661 66.2593C151.661 68.4648 152.314 70.0426 153.62 70.9926C154.927 71.9427 156.632 72.4177 158.735 72.4177C161.314 72.4177 163.545 71.9512 165.428 71.0181C167.311 70.085 169.152 68.6684 170.95 66.7683L170.95 57.9633ZM142.143 35.3145C148.149 29.8178 155.376 27.0694 163.825 27.0694C166.879 27.0694 169.61 27.5699 172.019 28.5708C174.428 29.5718 176.464 30.9629 178.127 32.7443C179.789 34.5257 181.053 36.6548 181.919 39.1317C182.784 41.6087 183.216 44.3231 183.216 47.2751L183.216 80.2557L177.516 80.2557C176.328 80.2557 175.412 80.0776 174.768 79.7213C174.123 79.365 173.614 78.644 173.241 77.5582L172.121 73.7919C170.798 74.9795 169.508 76.0229 168.253 76.922C166.998 77.8212 165.691 78.5761 164.334 79.1869C162.977 79.7976 161.526 80.2642 159.982 80.5865C158.439 80.9089 156.734 81.07 154.867 81.07C152.662 81.07 150.626 80.7732 148.76 80.1794C146.894 79.5856 145.282 78.6949 143.925 77.5073C142.567 76.3198 141.516 74.8438 140.769 73.0794C140.023 71.315 139.649 69.2622 139.649 66.921C139.649 65.5977 139.87 64.2828 140.311 62.9765C140.752 61.6702 141.473 60.4232 142.474 59.2357C143.475 58.0481 144.773 56.9284 146.368 55.8765C147.962 54.8247 149.922 53.9085 152.246 53.1281C154.57 52.3477 157.276 51.7115 160.364 51.2195C163.452 50.7275 166.981 50.4307 170.95 50.3289L170.95 47.2751C170.95 43.7802 170.204 41.193 168.711 39.5135C167.218 37.8339 165.063 36.9941 162.247 36.9941C160.211 36.9941 158.523 37.2316 157.183 37.7067C155.843 38.1817 154.664 38.7161 153.646 39.3099C152.628 39.9037 151.703 40.4381 150.872 40.9131C150.041 41.3881 149.116 41.6256 148.098 41.6256C147.216 41.6256 146.469 41.3966 145.859 40.9386C145.248 40.4805 144.756 39.9461 144.383 39.3353L142.143 35.3145Z" fill="#ffffff" opacity="1" stroke="none"/>
<path clip-path="url(#TextBounds_3)" d="M206.103 82.2487C201.556 82.2487 198.07 80.9678 195.644 78.406C193.218 75.8443 192.005 72.307 192.005 67.7942L192.005 38.6308L186.661 38.6308C185.982 38.6308 185.405 38.4103 184.93 37.9692C184.455 37.5281 184.218 36.8664 184.218 35.9842L184.218 30.9964L192.616 29.6222L195.262 15.3713C195.432 14.6927 195.754 14.1668 196.229 13.7936C196.704 13.4203 197.315 13.2337 198.061 13.2337L204.576 13.2337L204.576 29.6731L218.522 29.6731L218.522 38.6308L204.576 38.6308L204.576 66.929C204.576 68.5577 204.975 69.8301 205.772 70.7462C206.57 71.6623 207.664 72.1204 209.055 72.1204C209.835 72.1204 210.489 72.0271 211.015 71.8404C211.54 71.6538 211.999 71.4587 212.389 71.2551C212.779 71.0516 213.127 70.8565 213.432 70.6698C213.737 70.4832 214.043 70.3899 214.348 70.3899C214.721 70.3899 215.027 70.4832 215.264 70.6698C215.502 70.8565 215.756 71.1364 216.028 71.5096L219.794 77.6171C217.962 79.144 215.858 80.2977 213.483 81.0781C211.108 81.8585 208.648 82.2487 206.103 82.2487Z" fill="#ffffff" opacity="1" stroke="none"/>
<path clip-path="url(#TextBounds_4)" d="M275.89 35.2563C277.926 33.3561 280.166 31.8123 282.609 30.6247C285.052 29.4372 287.919 28.8434 291.21 28.8434C294.06 28.8434 296.588 29.3269 298.794 30.2939C300.999 31.2609 302.84 32.6182 304.316 34.3656C305.792 36.113 306.912 38.1997 307.675 40.6258C308.438 43.0518 308.82 45.7239 308.82 48.6419L308.82 81.877L296.249 81.877L296.249 48.6419C296.249 45.4524 295.519 42.984 294.06 41.2365C292.601 39.4891 290.379 38.6154 287.393 38.6154C285.221 38.6154 283.186 39.1074 281.285 40.0914C279.385 41.0754 277.587 42.4156 275.89 44.1122L275.89 81.877L263.319 81.877L263.319 6.24554L275.89 6.24554L275.89 35.2563Z" fill="#ffffff" opacity="1" stroke="none"/>
<path clip-path="url(#TextBounds_5)" d="M258.461 39.9482C258.088 40.4232 257.723 40.7964 257.367 41.0679C257.01 41.3393 256.493 41.4751 255.814 41.4751C255.17 41.4751 254.542 41.28 253.931 40.8897C253.32 40.4995 252.591 40.0584 251.743 39.5665C250.894 39.0745 249.885 38.6334 248.714 38.2432C247.544 37.853 246.093 37.6579 244.363 37.6579C242.157 37.6579 240.223 38.0565 238.56 38.8539C236.898 39.6513 235.515 40.7964 234.412 42.2894C233.31 43.7823 232.487 45.5891 231.944 47.7098C231.401 49.8305 231.13 52.2311 231.13 54.9116C231.13 57.6939 231.427 60.1709 232.02 62.3424C232.614 64.514 233.471 66.3377 234.591 67.8137C235.71 69.2897 237.067 70.4094 238.662 71.1729C240.257 71.9363 242.055 72.318 244.057 72.318C246.059 72.318 247.679 72.072 248.918 71.58C250.156 71.088 251.2 70.5452 252.048 69.9514C252.896 69.3576 253.634 68.8147 254.262 68.3227C254.89 67.8307 255.594 67.5847 256.374 67.5847C257.392 67.5847 258.155 67.9749 258.664 68.7553L262.278 73.3359C260.887 74.9646 259.377 76.3303 257.748 77.4331C256.12 78.5358 254.432 79.418 252.684 80.0797C250.937 80.7413 249.138 81.2079 247.289 81.4793C245.44 81.7508 243.599 81.8865 241.767 81.8865C238.543 81.8865 235.507 81.2842 232.657 80.0797C229.806 78.8751 227.312 77.1192 225.175 74.8119C223.037 72.5046 221.349 69.6799 220.111 66.3377C218.872 62.9956 218.253 59.1869 218.253 54.9116C218.253 51.0774 218.804 47.5232 219.907 44.2489C221.01 40.9746 222.63 38.1414 224.768 35.7493C226.905 33.3571 229.552 31.4825 232.707 30.1252C235.863 28.768 239.494 28.0894 243.599 28.0894C247.501 28.0894 250.92 28.7171 253.855 29.9726C256.79 31.228 259.428 33.0263 261.769 35.3675L258.461 39.9482Z" fill="#ffffff" opacity="1" stroke="none"/>
<path clip-path="url(#TextBounds_6)" d="M347.777 48.7072C347.777 47.0785 347.548 45.5431 347.09 44.1011C346.632 42.659 345.945 41.3951 345.029 40.3093C344.113 39.2235 342.951 38.3668 341.543 37.7391C340.135 37.1114 338.497 36.7975 336.631 36.7975C333.001 36.7975 330.142 37.8324 328.055 39.9021C325.969 41.9719 324.637 44.9069 324.06 48.7072L347.777 48.7072ZM323.805 56.2907C324.009 58.9712 324.484 61.287 325.231 63.238C325.977 65.189 326.961 66.8007 328.183 68.0731C329.404 69.3455 330.855 70.2955 332.534 70.9233C334.214 71.551 336.071 71.8648 338.107 71.8648C340.143 71.8648 341.899 71.6273 343.375 71.1523C344.851 70.6773 346.14 70.1513 347.243 69.5745C348.346 68.9977 349.313 68.4718 350.144 67.9967C350.975 67.5217 351.781 67.2842 352.562 67.2842C353.614 67.2842 354.394 67.6744 354.903 68.4548L358.517 73.0354C357.125 74.6641 355.565 76.0298 353.834 77.1326C352.104 78.2353 350.297 79.1175 348.414 79.7792C346.531 80.4408 344.613 80.9074 342.662 81.1788C340.711 81.4502 338.82 81.586 336.988 81.586C333.357 81.586 329.981 80.9837 326.859 79.7792C323.738 78.5746 321.023 76.7933 318.716 74.4351C316.409 72.0769 314.593 69.1589 313.27 65.681C311.947 62.2031 311.285 58.1738 311.285 53.5932C311.285 50.0305 311.862 46.6798 313.015 43.5412C314.169 40.4026 315.823 37.6712 317.978 35.347C320.132 33.0227 322.762 31.182 325.867 29.8247C328.971 28.4675 332.475 27.7889 336.377 27.7889C339.668 27.7889 342.705 28.3148 345.487 29.3667C348.269 30.4185 350.662 31.9539 352.663 33.9728C354.665 35.9916 356.235 38.4686 357.371 41.4036C358.508 44.3386 359.076 47.6892 359.076 51.4555C359.076 53.3557 358.873 54.6365 358.466 55.2982C358.058 55.9598 357.278 56.2907 356.124 56.2907L323.805 56.2907Z" fill="#ffffff" opacity="1" stroke="none"/>
<path clip-path="url(#TextBounds_7)" d="M382.457 80.8181C377.911 80.8181 374.424 79.5372 371.998 76.9755C369.572 74.4137 368.359 70.8764 368.359 66.3637L368.359 37.2003L363.015 37.2003C362.336 37.2003 361.76 36.9797 361.285 36.5386C360.81 36.0975 360.572 35.4359 360.572 34.5537L360.572 29.5659L368.97 28.1917L371.616 13.9408C371.786 13.2622 372.108 12.7362 372.583 12.363C373.058 11.9898 373.669 11.8031 374.416 11.8031L380.93 11.8031L380.93 28.2426L394.876 28.2426L394.876 37.2003L380.93 37.2003L380.93 65.4984C380.93 67.1271 381.329 68.3995 382.126 69.3156C382.924 70.2318 384.018 70.6898 385.409 70.6898C386.19 70.6898 386.843 70.5965 387.369 70.4099C387.895 70.2233 388.353 70.0282 388.743 69.8246C389.133 69.621 389.481 69.4259 389.786 69.2393C390.092 69.0527 390.397 68.9594 390.702 68.9594C391.076 68.9594 391.381 69.0527 391.619 69.2393C391.856 69.4259 392.111 69.7058 392.382 70.0791L396.148 76.1866C394.316 77.7135 392.212 78.8671 389.837 79.6475C387.462 80.4279 385.002 80.8181 382.457 80.8181Z" fill="#ffffff" opacity="1" stroke="none"/>
<g opacity="1">
<path d="M67.0011 42.3423C64.5072 39.5302 62.0509 36.6824 59.5114 33.9236C57.9842 32.2668 56.1372 30.9617 54.3324 29.6336C52.9362 28.6099 51.5151 27.6173 50.0443 26.6868C49.5762 26.3974 49.1121 26.0992 48.6077 25.8886C47.5817 25.1837 46.486 24.5847 45.4023 23.9593C44.677 23.5411 43.8859 23.22 43.1726 22.7755C41.7635 21.8945 40.3624 20.996 39.015 20.0267C38.1725 19.4273 37.371 18.7618 36.8698 17.8099C36.5974 17.3239 36.1306 17.0776 35.6886 16.8002C35.2727 16.5348 34.836 16.2917 34.3752 16.1011C34.0228 15.9498 34.1034 15.7746 34.2201 15.5205C35.0857 13.6368 35.9601 11.7571 36.7869 9.86613C37.8861 7.33635 38.759 4.70254 40.0585 2.26479C40.1927 2.01871 40.3181 1.76863 40.4523 1.52255C40.5207 1.51152 40.5756 1.48371 40.5817 1.40162C40.6829 1.34201 40.766 1.39079 40.849 1.43957C41.4848 1.59376 42.053 1.50471 42.5853 1.08078C42.9124 0.827877 43.0548 0.426368 43.3866 0.186225L43.3866 0.186225C43.7007 0.351801 43.984 0.630517 44.3961 0.49096C44.4396 0.510967 44.4745 0.526973 44.518 0.54698C44.7906 0.757122 45.0591 0.976025 45.4324 0.829223C45.5108 0.865236 45.5891 0.901249 45.6588 0.93326C45.9078 1.21749 46.2308 1.24916 46.5819 1.2195C46.6603 1.25552 46.7299 1.28753 46.8123 1.31478C47.0306 1.57425 47.2905 1.65124 47.6182 1.55777C49.3089 2.10128 51.0037 2.63603 52.6905 3.1883C54.6545 3.82557 56.6031 4.51941 58.5833 5.12164C60.191 5.61638 61.7672 6.20273 63.3789 6.6887C64.2585 6.95494 65.1541 7.18613 66.0068 7.55675C66.6291 7.83209 67.2234 7.75504 67.7985 7.4675C68.2087 7.26337 68.606 7.33982 68.9999 7.44655C70.7564 7.89292 72.5256 8.33454 74.274 8.79844C75.516 9.12512 76.7345 9.52589 77.9839 9.81352C79.2849 10.1036 80.5435 10.5547 81.8593 10.7667C82.7396 10.9166 83.6071 11.2091 84.4766 11.4283C84.7071 11.5235 84.7921 11.6369 84.6934 11.9205C83.4305 15.5636 82.0893 19.1707 80.4701 22.6713C79.1536 25.5363 77.7761 28.3732 76.1715 31.0847C75.7469 31.8021 75.3309 32.5236 74.9063 33.2411C74.8091 33.2919 74.7863 33.3875 74.7507 33.4879C74.504 33.7035 74.3363 33.9766 74.2168 34.2825C74.1417 34.3541 74.0707 34.417 74.0739 34.5246C73.8768 34.6781 73.7239 34.8731 73.6541 35.1169C73.5113 35.2211 73.4254 35.362 73.3878 35.5357C73.241 35.6487 73.0808 35.7448 73.0572 35.9568C72.8963 36.0315 72.8667 36.1877 72.811 36.3318C72.6877 36.3707 72.6394 36.4758 72.6172 36.593C72.4128 36.6476 72.3886 36.8381 72.3161 36.9958C72.1257 37.0887 72.0325 37.2687 71.9607 37.4479L71.8245 37.6294C71.6677 37.6953 71.6033 37.8355 71.5476 37.9797C71.4289 38.0313 71.3853 38.1492 71.3243 38.2591C71.2432 38.2749 71.215 38.3362 71.2129 38.4095C71.1794 38.4366 71.1419 38.4724 71.0996 38.4954C71.0226 38.5025 71.0199 38.5543 71.0044 38.6108C70.934 38.6952 70.8723 38.7836 70.8019 38.868C70.6599 38.8557 70.6504 38.9681 70.6275 39.0637C70.5344 39.1058 70.4727 39.1942 70.4411 39.2858C70.3634 39.2713 70.3607 39.3231 70.354 39.3837C70.0108 39.5338 69.8806 39.909 69.5863 40.1133C69.4617 40.1091 69.412 40.1712 69.42 40.2916C69.4119 40.3091 69.3824 40.3274 69.3657 40.3409C69.1439 40.3875 68.9709 40.4885 68.9835 40.7595C68.9754 40.777 68.9546 40.7993 68.9292 40.8088C68.7999 40.7919 68.7415 40.85 68.7455 40.9791C68.6831 41.046 68.6208 41.1128 68.5537 41.1669C68.411 41.1332 68.3614 41.1952 68.374 41.3284L68.1823 41.5162C68.0396 41.4824 67.9946 41.5573 68.0073 41.6904C67.9301 41.8354 67.782 41.9053 67.6513 41.9831C67.522 41.9662 67.455 42.0203 67.4676 42.1534C67.359 42.2521 67.2463 42.3595 67.1377 42.4581C67.1116 42.4461 67.0942 42.4381 67.0721 42.4173L66.9844 42.3558L67.0011 42.3423Z" fill="#ffffff" fill-rule="nonzero" opacity="1" stroke="none"/>
<path d="M36.8658 17.8187C37.3583 18.7666 38.1685 19.436 39.011 20.0354C40.3624 20.996 41.7595 21.9033 43.1686 22.7843C43.8818 23.2288 44.6642 23.5459 45.3983 23.9681C46.4732 24.5894 47.569 25.1885 48.6037 25.8974C48.7186 26.2898 48.435 26.5627 48.2941 26.8694C47.6821 28.2011 47.5063 29.6165 47.4986 31.0562C47.4915 32.5173 47.6172 33.9652 47.8285 35.41C47.9179 36.0878 48.1184 36.753 48.0838 37.448C48.0329 38.316 47.8776 39.136 47.2941 39.8548C46.4626 40.884 45.5293 41.8134 44.6361 42.7931C43.2944 44.267 41.9748 45.7617 40.7033 47.2891C39.5399 48.6964 38.3851 50.1077 37.3054 51.5852C36.1679 53.1424 34.9956 54.6836 33.9372 56.2983C31.968 59.2984 30.2083 62.4161 28.8934 65.7594C27.9571 68.1412 27.341 70.6065 27.1918 73.1802C27.1042 74.8166 27.3376 76.4201 27.7633 77.9953C28.034 78.9898 28.4407 79.9407 28.822 80.9012C29.0735 81.5473 29.3222 82.2453 28.8836 82.9245C28.5019 83.5025 27.9328 83.8459 27.2921 84.0926C26.2654 84.491 25.1879 84.6325 24.1123 84.8386C24.1225 84.7478 24.15 84.6649 24.1474 84.5788C24.064 83.1079 23.9504 81.6338 23.9655 80.1551C23.9746 78.6206 24.186 77.1048 24.23 75.5863C24.2635 74.5724 24.5034 73.5684 24.6917 72.5619C25.0038 70.8271 25.2898 69.0802 25.7184 67.3671C25.8562 66.815 25.9852 66.2588 26.1705 65.7178C26.4001 65.0805 26.7422 64.4737 26.399 63.7748C26.3762 63.7325 26.3997 63.6584 26.4025 63.6066C26.5196 62.8009 26.6709 61.9897 26.7579 61.1807C26.8746 60.0777 27.2813 59.0549 27.6231 58.0128C28.0703 56.6266 28.5001 55.2323 29.021 53.8693C29.5103 52.5979 30.0043 51.3393 30.5023 50.072C30.8688 49.1368 31.2306 48.1888 31.6192 47.2744C32.2413 45.8518 32.781 44.4019 33.3991 42.9881C34.0212 41.5655 34.5602 40.0941 35.191 38.6755C35.6332 37.6903 35.9756 36.6697 36.3918 35.6724C36.8159 34.6576 37.2441 33.6341 37.5551 32.5672C37.7492 31.8924 37.9734 31.2208 37.9866 30.5265C37.9916 30.1255 38.1715 29.6882 37.9064 29.3011C37.5691 28.7959 37.0759 28.8134 36.5486 28.8363C35.9998 28.8601 35.7136 29.0469 35.6831 29.5953C35.6018 30.8737 35.2264 32.0808 34.9549 33.3143C34.4891 35.3605 33.7588 37.317 32.9675 39.2455C32.4876 40.4045 31.8905 41.5202 31.2405 42.5904C30.3859 43.9911 29.3519 45.2774 28.4404 46.6413C28.2801 46.8754 28.1044 47.0281 27.8023 46.9742C27.8259 46.7622 27.9453 46.5942 28.0559 46.4222C28.7643 45.2939 29.4987 44.1776 30.2244 43.0573C31.0609 41.765 31.8189 40.4368 32.4504 39.0397C33.0301 37.778 33.488 36.4604 33.8983 35.1315C34.7659 32.3255 35.2363 29.443 35.4051 26.5281C35.4817 25.2369 35.4766 23.9399 35.5874 22.6431C35.6786 21.5496 35.8515 20.4618 36.2884 19.4422C36.4616 19.0655 36.4692 18.6127 36.7723 18.2745C36.8555 18.1853 36.6292 17.9434 36.8705 17.8314L36.8658 17.8187Z" fill="#ffffff" fill-rule="nonzero" opacity="1" stroke="none"/>
<path d="M27.7889 46.9574C28.091 47.0113 28.2667 46.8586 28.427 46.6245C29.3385 45.2606 30.3725 43.9743 31.2271 42.5737C31.8811 41.4947 32.4782 40.379 32.9541 39.2287C33.7454 37.3002 34.4797 35.335 34.9415 33.2975C35.2217 32.068 35.5924 30.8482 35.6697 29.5785C35.7002 29.0301 35.9864 28.8433 36.5352 28.8196C37.0625 28.7966 37.5516 28.7879 37.893 29.2844C38.154 29.6802 37.9782 30.1088 37.9732 30.5097C37.96 31.204 37.7358 31.8756 37.5417 32.5505C37.2394 33.6213 36.8025 34.6409 36.3784 35.6557C35.9623 36.653 35.6071 37.6783 35.1776 38.6588C34.5428 40.0861 34.0078 41.5487 33.3857 42.9713C32.7636 44.3939 32.2239 45.8438 31.6058 47.2576C31.2085 48.168 30.8554 49.12 30.4889 50.0552C29.9909 51.3226 29.4969 52.5812 29.0076 53.8526C28.4867 55.2155 28.0569 56.6098 27.6097 57.996C27.2767 59.0421 26.8612 60.0609 26.7445 61.164C26.6575 61.9729 26.5102 62.7754 26.3891 63.5898C26.3823 63.6504 26.3629 63.7157 26.3856 63.758C26.7288 64.457 26.3867 65.0638 26.1571 65.7011C25.9631 66.238 25.8428 66.7982 25.705 67.3504C25.2851 69.0675 24.9904 70.8103 24.6783 72.5452C24.4987 73.5556 24.2501 74.5556 24.2166 75.5695C24.1686 77.0968 23.9572 78.6126 23.9521 80.1383C23.9457 81.621 24.0546 83.0824 24.134 84.5621C24.1366 84.6482 24.1178 84.735 24.099 84.8219C23.4228 85.0311 22.7186 85.0258 22.0224 85.0031C21.7216 84.9922 21.4208 84.9813 21.1199 84.9704C20.7549 84.8238 20.3776 84.8415 19.997 84.8894C19.9454 84.8869 19.8979 84.8757 19.8463 84.8732C19.7526 84.7559 19.6454 84.7596 19.5314 84.824C19.4497 84.8183 19.3807 84.8078 19.2989 84.8021C19.2092 84.676 19.0987 84.71 18.9753 84.7489C18.9238 84.7464 18.8762 84.7351 18.8246 84.7327C18.7436 84.6105 18.6277 84.6103 18.505 84.6707C18.4233 84.665 18.3543 84.6545 18.2726 84.6488C18.1608 84.5019 18.0221 84.4594 17.8485 84.5388C16.5106 84.306 15.1701 83.9871 14.0269 83.2389C12.7083 82.3677 11.7402 81.1694 11.2173 79.6451C10.6055 77.8783 10.7273 76.0985 11.1366 74.3128C11.6481 72.0753 12.6163 70.0371 13.7011 68.0207C14.4854 66.5665 15.3755 65.2034 16.3044 63.8475C17.1474 62.6326 18.0521 61.4672 19.0224 60.3425C19.296 60.0226 19.5428 59.6691 19.7595 59.3124C20.716 57.7357 21.7556 56.2078 22.7557 54.6512C24.1126 52.5476 25.4736 50.4352 26.8305 48.3315C26.8922 48.2432 26.9499 48.1636 27.0075 48.084C27.2743 47.9625 27.4051 47.7467 27.422 47.4573C27.5106 47.2646 27.5992 47.0718 27.7581 46.9326L27.7889 46.9574Z" fill="#ffffff" fill-rule="nonzero" opacity="1" stroke="none"/>
</g>
</g>
</svg>
