<?xml version="1.0" encoding="UTF-8" standalone="no"?>
<!DOCTYPE svg PUBLIC "-//W3C//DTD SVG 1.1//EN" "http://www.w3.org/Graphics/SVG/1.1/DTD/svg11.dtd">
<!-- Created with Vectornator (http://vectornator.io/) -->
<svg height="100%" stroke-miterlimit="10" style="fill-rule:nonzero;clip-rule:evenodd;stroke-linecap:round;stroke-linejoin:round;" version="1.1" viewBox="0 0 1024 1024" width="100%" xml:space="preserve" xmlns="http://www.w3.org/2000/svg" xmlns:vectornator="http://vectornator.io" xmlns:xlink="http://www.w3.org/1999/xlink">
<defs/>
<clipPath id="ArtboardFrame">
<rect height="1024" width="1024" x="0" y="0"/>
</clipPath>
<g clip-path="url(#ArtboardFrame)" id="Layer-1" vectornator:layerName="Layer 1">
<path d="M-12.5891-23.4L1037.87-23.4L1037.87 1033.78L-12.5891 1033.78L-12.5891-23.4Z" fill="#db1d2e" fill-rule="nonzero" opacity="1" stroke="none"/>
<g opacity="1">
<path d="M726.933 513.319C705.113 488.715 683.622 463.799 661.403 439.662C648.041 425.165 631.881 413.747 616.09 402.127C603.874 393.171 591.44 384.486 578.572 376.344C574.477 373.812 570.416 371.203 566.003 369.361C557.026 363.193 547.439 357.952 537.958 352.481C531.612 348.822 524.69 346.013 518.45 342.124C506.121 334.416 493.863 326.554 482.074 318.073C474.703 312.829 467.69 307.006 463.305 298.678C460.922 294.426 456.837 292.27 452.97 289.843C449.331 287.521 445.51 285.394 441.478 283.727C438.396 282.403 439.1 280.87 440.122 278.647C447.695 262.166 455.345 245.72 462.579 229.175C472.197 207.042 479.833 183.997 491.203 162.669C492.377 160.516 493.475 158.328 494.649 156.175C495.247 156.078 495.728 155.835 495.781 155.117C496.667 154.595 497.393 155.022 498.12 155.449C503.682 156.798 508.654 156.019 513.311 152.31C516.173 150.097 517.419 146.584 520.322 144.483L520.322 144.483C523.07 145.932 525.548 148.37 529.155 147.149C529.535 147.324 529.84 147.464 530.221 147.639C532.606 149.478 534.955 151.393 538.221 150.109C538.907 150.424 539.593 150.739 540.202 151.019C542.381 153.506 545.207 153.783 548.279 153.523C548.964 153.838 549.574 154.119 550.295 154.357C552.204 156.627 554.478 157.301 557.345 156.483C572.138 161.238 586.967 165.917 601.724 170.749C618.908 176.325 635.957 182.395 653.283 187.664C667.349 191.993 681.139 197.123 695.241 201.375C702.936 203.704 710.773 205.727 718.233 208.97C723.677 211.379 728.878 210.705 733.909 208.189C737.498 206.403 740.974 207.072 744.42 208.006C759.788 211.911 775.268 215.775 790.565 219.834C801.432 222.692 812.093 226.198 823.024 228.715C834.407 231.253 845.419 235.2 856.931 237.055C864.633 238.366 872.223 240.925 879.831 242.843C881.847 243.677 882.591 244.668 881.727 247.15C870.679 279.024 858.944 310.584 844.777 341.211C833.258 366.278 821.206 391.1 807.167 414.823C803.452 421.1 799.813 427.412 796.098 433.69C795.247 434.135 795.047 434.971 794.736 435.849C792.577 437.736 791.11 440.125 790.065 442.802C789.408 443.428 788.786 443.978 788.815 444.92C787.09 446.263 785.753 447.969 785.141 450.102C783.892 451.013 783.141 452.247 782.812 453.766C781.527 454.754 780.125 455.596 779.919 457.451C778.512 458.104 778.253 459.47 777.765 460.732C776.686 461.072 776.264 461.992 776.069 463.016C774.281 463.494 774.069 465.161 773.435 466.541C771.769 467.354 770.954 468.929 770.325 470.497L769.134 472.085C767.762 472.661 767.198 473.888 766.711 475.149C765.673 475.601 765.291 476.632 764.757 477.594C764.048 477.732 763.801 478.269 763.783 478.91C763.49 479.147 763.161 479.46 762.792 479.662C762.118 479.723 762.094 480.177 761.959 480.671C761.343 481.41 760.803 482.183 760.187 482.921C758.944 482.814 758.861 483.797 758.661 484.634C757.846 485.002 757.306 485.775 757.03 486.577C756.35 486.45 756.327 486.904 756.268 487.434C753.265 488.746 752.126 492.029 749.551 493.817C748.461 493.78 748.026 494.323 748.096 495.377C748.025 495.53 747.767 495.69 747.621 495.808C745.68 496.216 744.167 497.099 744.277 499.471C744.206 499.624 744.024 499.819 743.802 499.902C742.67 499.754 742.16 500.262 742.194 501.392C741.649 501.977 741.103 502.562 740.517 503.035C739.268 502.74 738.834 503.283 738.945 504.448L737.267 506.091C736.018 505.796 735.625 506.451 735.736 507.616C735.061 508.884 733.765 509.495 732.621 510.177C731.49 510.028 730.903 510.501 731.014 511.666C730.064 512.53 729.078 513.469 728.128 514.332C727.899 514.227 727.747 514.157 727.554 513.976L726.786 513.437L726.933 513.319Z" fill="#ffffff" fill-rule="nonzero" opacity="1" stroke="none"/>
<path d="M463.269 298.754C467.578 307.048 474.667 312.905 482.038 318.15C493.863 326.554 506.086 334.492 518.415 342.2C524.655 346.089 531.5 348.864 537.923 352.558C547.328 357.994 556.915 363.235 565.968 369.438C566.974 372.871 564.492 375.259 563.259 377.942C557.905 389.594 556.366 401.978 556.299 414.573C556.237 427.358 557.336 440.025 559.186 452.667C559.967 458.596 561.722 464.416 561.419 470.497C560.974 478.092 559.615 485.266 554.51 491.555C547.235 500.56 539.069 508.692 531.255 517.263C519.515 530.159 507.969 543.236 496.845 556.6C486.666 568.913 476.562 581.261 467.115 594.188C457.164 607.813 446.907 621.297 437.647 635.425C420.417 661.674 405.021 688.951 393.517 718.203C385.325 739.042 379.934 760.611 378.629 783.13C377.863 797.447 379.905 811.476 383.629 825.258C385.998 833.959 389.556 842.279 392.892 850.683C395.092 856.336 397.269 862.443 393.431 868.385C390.091 873.442 385.112 876.446 379.506 878.605C370.523 882.09 361.096 883.329 351.686 885.132C351.774 884.337 352.015 883.612 351.992 882.859C351.262 869.99 350.269 857.092 350.401 844.155C350.481 830.729 352.331 817.467 352.715 804.181C353.008 795.31 355.107 786.526 356.755 777.72C359.485 762.541 361.987 747.257 365.738 732.269C366.943 727.438 368.072 722.572 369.693 717.839C371.702 712.263 374.695 706.954 371.692 700.839C371.493 700.469 371.699 699.82 371.723 699.367C372.748 692.318 374.071 685.22 374.833 678.142C375.853 668.491 379.412 659.542 382.402 650.425C386.315 638.296 390.075 626.098 394.633 614.172C398.914 603.049 403.236 592.037 407.594 580.948C410.8 572.766 413.966 564.472 417.365 556.471C422.808 544.025 427.53 531.339 432.938 518.969C438.381 506.523 443.097 493.649 448.616 481.238C452.485 472.617 455.481 463.688 459.122 454.962C462.833 446.084 466.579 437.128 469.3 427.794C470.998 421.89 472.96 416.014 473.076 409.939C473.119 406.431 474.693 402.605 472.374 399.218C469.423 394.798 465.108 394.95 460.494 395.151C455.693 395.359 453.189 396.993 452.921 401.791C452.21 412.977 448.926 423.538 446.55 434.33C442.475 452.233 436.085 469.351 429.162 486.224C424.963 496.365 419.739 506.126 414.052 515.49C406.575 527.745 397.528 538.999 389.553 550.932C388.15 552.98 386.614 554.317 383.97 553.845C384.176 551.99 385.221 550.52 386.189 549.015C392.387 539.143 398.813 529.377 405.162 519.575C412.48 508.269 419.113 496.647 424.638 484.424C429.71 473.385 433.716 461.856 437.306 450.229C444.897 425.679 449.012 400.459 450.49 374.956C451.16 363.659 451.115 352.311 452.084 340.965C452.882 331.397 454.395 321.88 458.218 312.959C459.733 309.663 459.8 305.702 462.452 302.742C463.179 301.963 461.199 299.846 463.31 298.866L463.269 298.754Z" fill="#ffffff" fill-rule="nonzero" opacity="1" stroke="none"/>
<path d="M383.853 553.698C386.496 554.17 388.033 552.834 389.436 550.786C397.411 538.853 406.458 527.598 413.935 515.343C419.657 505.903 424.881 496.141 429.045 486.077C435.968 469.205 442.393 452.01 446.433 434.183C448.885 423.426 452.128 412.754 452.804 401.645C453.071 396.847 455.576 395.212 460.377 395.005C464.991 394.804 469.27 394.728 472.257 399.071C474.541 402.535 473.002 406.284 472.959 409.792C472.843 415.867 470.881 421.743 469.183 427.647C466.538 437.016 462.716 445.937 459.005 454.816C455.364 463.541 452.257 472.512 448.499 481.091C442.945 493.579 438.264 506.376 432.821 518.823C427.378 531.269 422.656 543.955 417.248 556.325C413.772 564.29 410.683 572.619 407.476 580.802C403.119 591.89 398.797 602.902 394.515 614.026C389.958 625.951 386.198 638.15 382.285 650.278C379.371 659.431 375.736 668.345 374.715 677.995C373.954 685.073 372.666 692.094 371.605 699.22C371.546 699.75 371.376 700.322 371.575 700.692C374.578 706.807 371.585 712.116 369.576 717.692C367.879 722.39 366.826 727.291 365.621 732.122C361.946 747.146 359.368 762.394 356.638 777.573C355.066 786.414 352.891 795.163 352.598 804.034C352.178 817.397 350.328 830.659 350.284 844.008C350.228 856.981 351.18 869.767 351.875 882.712C351.898 883.466 351.733 884.226 351.569 884.986C345.652 886.816 339.491 886.77 333.4 886.571C330.768 886.476 328.136 886.38 325.504 886.285C322.31 885.003 319.01 885.157 315.68 885.577C315.228 885.555 314.812 885.457 314.361 885.435C313.541 884.408 312.603 884.441 311.606 885.004C310.891 884.954 310.287 884.863 309.572 884.812C308.787 883.709 307.819 884.007 306.741 884.347C306.289 884.325 305.873 884.227 305.422 884.205C304.713 883.137 303.699 883.135 302.626 883.663C301.911 883.613 301.307 883.521 300.592 883.471C299.614 882.186 298.4 881.814 296.882 882.509C285.176 880.472 273.448 877.682 263.445 871.136C251.908 863.513 243.438 853.029 238.863 839.693C233.51 824.234 234.576 808.662 238.157 793.039C242.632 773.462 251.103 755.63 260.595 737.987C267.457 725.264 275.244 713.338 283.372 701.475C290.748 690.845 298.663 680.648 307.152 670.809C309.546 668.009 311.706 664.916 313.601 661.795C321.97 648.001 331.066 634.633 339.816 621.014C351.688 602.608 363.595 584.126 375.467 565.721C376.007 564.948 376.512 564.251 377.017 563.555C379.35 562.492 380.495 560.604 380.643 558.072C381.418 556.386 382.193 554.699 383.583 553.481L383.853 553.698Z" fill="#ffffff" fill-rule="nonzero" opacity="1" stroke="none"/>
</g>
</g>
</svg>
