<?xml version="1.0" encoding="UTF-8"?><svg id="j" xmlns="http://www.w3.org/2000/svg" xmlns:xlink="http://www.w3.org/1999/xlink" viewBox="0 0 150 150"><defs><linearGradient id="l" x1="73.76" y1="15.64" x2="73.76" y2="135.08" gradientUnits="userSpaceOnUse"><stop offset="0" stop-color="#db5a2e"/><stop offset=".05" stop-color="#db532e"/><stop offset=".25" stop-color="#db3b2e"/><stop offset=".47" stop-color="#db2a2e"/><stop offset=".71" stop-color="#db202e"/><stop offset="1" stop-color="#db1d2e"/></linearGradient></defs><g id="k"><circle cx="73.76" cy="75.36" r="59.72" style="fill:url(#l);"/></g><g id="m"><path d="M95.98,66.17c-3.59-1.57-7.16-3.19-10.77-4.69-2.17-.9-4.49-1.33-6.78-1.8-1.77-.36-3.55-.68-5.35-.92-.57-.07-1.14-.15-1.71-.13-1.28-.22-2.58-.31-3.88-.43-.87-.08-1.76-.04-2.63-.15-1.72-.22-3.44-.46-5.14-.79-1.06-.2-2.11-.48-3-1.16-.47-.34-1.02-.37-1.56-.44-.51-.07-1.03-.11-1.55-.09-.4,.01-.4-.19-.4-.48,0-2.15,.01-4.3-.03-6.44-.06-2.86-.38-5.72-.21-8.58,.02-.29,.03-.58,.05-.87,.06-.04,.1-.09,.07-.17,.07-.1,.17-.09,.27-.08,.67-.13,1.17-.46,1.49-1.09,.2-.38,.16-.82,.37-1.19,0,0,0,0,0,0,.37,.02,.76,.16,1.09-.15,.05,0,.09,0,.14,0,.35,.08,.7,.17,.99-.13,.09,0,.18,0,.26,0,.36,.16,.68,.05,1-.13,.09,0,.17,0,.26-.01,.32,.15,.6,.11,.87-.12,1.84-.22,3.68-.45,5.52-.66,2.14-.25,4.29-.44,6.43-.73,1.74-.23,3.49-.36,5.23-.6,.95-.13,1.9-.3,2.87-.32,.71-.01,1.24-.34,1.66-.86,.3-.37,.71-.47,1.13-.54,1.86-.34,3.73-.69,5.59-1.01,1.32-.23,2.65-.38,3.96-.65,1.36-.29,2.75-.41,4.09-.78,.9-.24,1.85-.34,2.77-.51,.26-.01,.39,.06,.42,.37,.39,3.98,.69,7.96,.68,11.96,0,3.27-.07,6.54-.41,9.79-.09,.86-.17,1.72-.26,2.58-.07,.09-.05,.19-.04,.3-.14,.31-.18,.64-.16,.98-.04,.1-.08,.19-.03,.29-.12,.23-.18,.48-.14,.74-.09,.16-.11,.33-.07,.51-.09,.17-.2,.33-.13,.54-.12,.14-.08,.3-.07,.46-.1,.09-.1,.21-.07,.33-.17,.14-.11,.33-.11,.51-.14,.17-.15,.38-.14,.58l-.05,.23c-.12,.13-.12,.29-.11,.45-.09,.1-.08,.23-.09,.36-.07,.05-.07,.12-.04,.19-.02,.04-.04,.09-.07,.13-.07,.04-.05,.09-.04,.15-.03,.11-.05,.22-.08,.33-.14,.05-.1,.16-.08,.26-.07,.08-.09,.19-.08,.29-.08,.02-.06,.07-.04,.13-.26,.29-.22,.7-.41,1.02-.12,.05-.14,.13-.08,.24,0,.02-.02,.05-.03,.07-.19,.14-.31,.31-.18,.56,0,.02-.01,.05-.03,.07-.13,.04-.16,.12-.1,.24-.03,.09-.06,.18-.1,.26-.15,.03-.17,.11-.1,.23l-.1,.26c-.15,.03-.16,.12-.09,.24-.01,.17-.12,.3-.21,.43-.13,.04-.17,.12-.1,.24-.06,.14-.12,.29-.18,.43-.03,0-.05,0-.08-.01l-.11-.02Z" style="fill:#fff;"/><path d="M56.72,56.11c.88,.68,1.94,.96,3,1.16,1.7,.32,3.42,.57,5.14,.79,.87,.11,1.75,.07,2.63,.15,1.29,.12,2.59,.21,3.88,.43,.28,.32,.13,.7,.13,1.05,0,1.52,.45,2.93,1.07,4.29,.63,1.38,1.38,2.69,2.21,3.96,.38,.6,.86,1.14,1.13,1.81,.33,.84,.54,1.68,.3,2.61-.34,1.33-.82,2.61-1.24,3.92-.63,1.97-1.23,3.95-1.77,5.94-.49,1.83-.97,3.66-1.35,5.52-.4,1.96-.84,3.92-1.14,5.9-.56,3.68-.87,7.38-.66,11.1,.15,2.65,.64,5.24,1.62,7.73,.63,1.58,1.55,2.99,2.64,4.29,.69,.82,1.49,1.54,2.27,2.28,.52,.5,1.06,1.05,.94,1.88-.11,.71-.5,1.28-1,1.79-.8,.82-1.76,1.42-2.69,2.08-.03-.09-.04-.18-.08-.26-.72-1.35-1.47-2.69-2.1-4.09-.66-1.45-1.12-2.97-1.74-4.42-.41-.97-.62-2.02-.88-3.05-.46-1.77-.95-3.54-1.29-5.34-.11-.58-.23-1.16-.29-1.75-.06-.7,0-1.42-.63-1.93-.04-.03-.05-.11-.07-.16-.24-.81-.45-1.64-.72-2.44-.37-1.09-.43-2.23-.56-3.36-.18-1.5-.38-3-.48-4.51-.09-1.41-.17-2.81-.25-4.22-.06-1.04-.13-2.09-.16-3.12-.03-1.61-.15-3.21-.18-4.81-.03-1.61-.16-3.23-.18-4.84-.01-1.12-.13-2.23-.17-3.35-.04-1.14-.08-2.29-.25-3.43-.11-.72-.19-1.45-.48-2.11-.17-.38-.19-.87-.61-1.12-.54-.33-1-.1-1.49,.15-.51,.26-.7,.56-.49,1.09,.48,1.24,.65,2.54,.93,3.82,.45,2.13,.61,4.29,.7,6.45,.05,1.3-.03,2.61-.18,3.9-.2,1.69-.62,3.35-.89,5.03-.05,.29-.15,.51-.46,.59-.07-.21-.03-.42,0-.63,.18-1.37,.39-2.74,.59-4.11,.23-1.58,.37-3.16,.36-4.75,0-1.44-.14-2.88-.33-4.31-.4-3.02-1.21-5.94-2.32-8.76-.49-1.25-1.06-2.47-1.52-3.74-.39-1.07-.7-2.17-.73-3.32,0-.43-.19-.86-.05-1.31,.04-.12-.28-.25-.1-.46Z" style="fill:#fff;"/><path d="M60.81,87.5c.31-.08,.41-.3,.46-.59,.27-1.68,.69-3.34,.89-5.03,.15-1.3,.23-2.61,.18-3.9-.09-2.16-.25-4.33-.7-6.45-.27-1.28-.45-2.59-.93-3.82-.21-.53-.02-.83,.49-1.09,.49-.25,.95-.47,1.49-.15,.42,.26,.44,.74,.61,1.12,.29,.66,.37,1.39,.48,2.11,.18,1.14,.21,2.29,.25,3.43,.04,1.12,.15,2.24,.17,3.35,.02,1.62,.15,3.23,.18,4.84,.03,1.61,.15,3.21,.18,4.81,.02,1.03,.1,2.08,.16,3.12,.08,1.41,.16,2.81,.25,4.22,.1,1.51,.3,3.01,.48,4.51,.14,1.13,.19,2.27,.56,3.36,.27,.8,.48,1.62,.72,2.44,.02,.06,.03,.13,.07,.16,.63,.51,.57,1.23,.63,1.93,.05,.59,.18,1.17,.29,1.75,.35,1.8,.83,3.57,1.29,5.34,.27,1.03,.47,2.08,.88,3.05,.62,1.46,1.08,2.98,1.74,4.42,.64,1.4,1.38,2.73,2.1,4.09,.04,.08,.06,.17,.08,.26-.55,.49-1.22,.79-1.89,1.07-.29,.12-.58,.24-.87,.36-.41,.02-.76,.2-1.1,.41-.05,.02-.1,.03-.15,.05-.14-.07-.24-.02-.32,.09-.08,.03-.15,.05-.23,.08-.14-.08-.23,0-.33,.09-.05,.02-.1,.03-.15,.05-.13-.08-.24-.03-.33,.08-.08,.03-.15,.05-.23,.08-.17-.09-.32-.07-.45,.08-1.37,.36-2.78,.64-4.19,.43-1.63-.25-3.07-.96-4.23-2.17-1.35-1.4-2.01-3.13-2.4-4.99-.49-2.33-.46-4.67-.31-7.04,.11-1.71,.36-3.38,.65-5.06,.27-1.51,.62-3,1.05-4.48,.12-.42,.2-.86,.25-1.29,.22-1.9,.54-3.79,.81-5.69,.37-2.57,.74-5.15,1.11-7.72,.02-.11,.04-.21,.06-.31,.2-.23,.23-.49,.12-.77,0-.22,0-.44,.09-.64Z" style="fill:#fff;"/></g></svg>