<?xml version="1.0" encoding="UTF-8" standalone="no"?>
<!DOCTYPE svg PUBLIC "-//W3C//DTD SVG 1.1//EN" "http://www.w3.org/Graphics/SVG/1.1/DTD/svg11.dtd">
<!-- Created with Vectornator (http://vectornator.io/) -->
<svg height="100%" stroke-miterlimit="10" style="fill-rule:nonzero;clip-rule:evenodd;stroke-linecap:round;stroke-linejoin:round;" version="1.1" viewBox="0 0 1024 1024" width="100%" xml:space="preserve" xmlns="http://www.w3.org/2000/svg" xmlns:vectornator="http://vectornator.io" xmlns:xlink="http://www.w3.org/1999/xlink">
<defs/>
<g id="Layer-1" vectornator:layerName="Layer 1">
<g opacity="1">
<path d="M44.897 331.637C145.125 72.0661 435.506-57.6068 693.479 42.0048C951.453 141.616 1079.33 432.792 979.103 692.363C878.875 951.934 588.494 1081.61 330.521 981.995C72.5467 882.384-55.3313 591.208 44.897 331.637Z" fill="#db1d2e" fill-rule="nonzero" opacity="1" stroke="none"/>
<path d="M713.722 506.782C690.413 483.584 667.413 460.053 643.736 437.345C629.498 423.709 612.659 413.318 596.176 402.703C583.425 394.524 570.476 386.63 557.126 379.305C552.881 377.032 548.665 374.681 544.146 373.117C534.803 367.52 524.909 362.885 515.105 358.015C508.544 354.758 501.461 352.385 494.991 348.891C482.206 341.965 469.482 334.882 457.188 327.151C449.505 322.375 442.144 317.001 437.249 308.961C434.606 304.866 430.395 302.969 426.384 300.787C422.608 298.696 418.662 296.81 414.534 295.397C411.375 294.268 411.983 292.694 412.864 290.412C419.398 273.491 426.01 256.601 432.2 239.638C440.422 216.949 446.61 193.474 456.631 171.48C457.668 169.258 458.628 167.006 459.665 164.784C460.256 164.65 460.721 164.378 460.73 163.657C461.581 163.082 462.333 163.462 463.085 163.843C468.72 164.844 473.634 163.757 478.051 159.765C480.77 157.378 481.794 153.795 484.561 151.517L484.561 151.517C487.394 152.792 490.019 155.072 493.542 153.629C493.934 153.78 494.246 153.9 494.638 154.051C497.132 155.738 499.596 157.503 502.776 156.018C503.48 156.29 504.184 156.562 504.809 156.803C507.139 159.15 509.976 159.251 513.026 158.8C513.73 159.072 514.356 159.314 515.09 159.507C517.137 161.654 519.449 162.185 522.259 161.19C537.32 165.016 552.41 168.763 567.44 172.667C584.938 177.163 602.332 182.161 619.951 186.342C634.259 189.786 648.342 194.049 662.681 197.415C670.507 199.261 678.454 200.792 686.101 203.564C691.685 205.63 696.833 204.633 701.698 201.81C705.169 199.804 708.68 200.255 712.178 200.973C727.759 203.914 743.449 206.807 758.969 209.906C769.993 212.083 780.851 214.919 791.918 216.751C803.437 218.576 814.673 221.829 826.278 222.964C834.047 223.794 841.782 225.876 849.494 227.317C851.558 228.023 852.362 228.967 851.655 231.497C842.61 263.997 832.862 296.226 820.629 327.676C810.692 353.41 800.207 378.934 787.672 403.484C784.354 409.981 781.115 416.507 777.798 423.004C776.977 423.501 776.829 424.348 776.573 425.244C774.536 427.261 773.221 429.737 772.344 432.473C771.727 433.139 771.141 433.727 771.228 434.665C769.59 436.113 768.361 437.899 767.884 440.066C766.694 441.053 766.021 442.331 765.787 443.868C764.566 444.934 763.22 445.861 763.129 447.725C761.765 448.465 761.592 449.845 761.184 451.134C760.128 451.54 759.763 452.485 759.633 453.52C757.878 454.108 757.77 455.785 757.223 457.201C755.612 458.116 754.895 459.739 754.366 461.343L753.276 463.002C751.942 463.663 751.456 464.922 751.048 466.211C750.04 466.727 749.723 467.78 749.25 468.773C748.55 468.955 748.338 469.506 748.36 470.147C748.082 470.402 747.773 470.735 747.417 470.959C746.748 471.062 746.753 471.516 746.648 472.019C746.08 472.794 745.589 473.599 745.02 474.374C743.773 474.345 743.752 475.331 743.604 476.179C742.813 476.597 742.323 477.402 742.097 478.219C741.411 478.135 741.415 478.589 741.389 479.122C738.474 480.619 737.541 483.966 735.083 485.911C733.992 485.942 733.593 486.511 733.728 487.558C733.667 487.715 733.419 487.891 733.28 488.018C731.369 488.546 729.914 489.522 730.171 491.882C730.11 492.039 729.941 492.245 729.723 492.342C728.585 492.264 728.107 492.803 728.212 493.929C727.704 494.547 727.196 495.164 726.64 495.673C725.375 495.456 724.976 496.025 725.159 497.181L723.586 498.925C722.322 498.708 721.97 499.387 722.153 500.542C721.558 501.85 720.303 502.541 719.204 503.292C718.065 503.214 717.509 503.723 717.692 504.879C716.798 505.8 715.872 506.799 714.978 507.719C714.743 507.629 714.587 507.568 714.382 507.399L713.583 506.91L713.722 506.782Z" fill="#ffffff" fill-rule="nonzero" opacity="1" stroke="none"/>
<path d="M437.218 309.04C442.035 317.049 449.475 322.454 457.158 327.229C469.482 334.882 482.176 342.044 494.96 348.97C501.431 352.463 508.435 354.806 515.075 358.094C524.8 362.934 534.695 367.568 544.116 373.196C545.333 376.56 543.005 379.097 541.942 381.852C537.323 393.814 536.558 406.27 537.274 418.846C538.008 431.609 539.894 444.184 542.526 456.685C543.675 462.555 545.788 468.254 545.864 474.343C545.893 481.95 544.983 489.195 540.279 495.789C533.578 505.23 525.934 513.854 518.668 522.895C507.754 536.496 497.044 550.266 486.773 564.297C477.38 577.219 468.064 590.171 459.44 603.662C450.355 617.879 440.958 631.975 432.594 646.652C417.031 673.922 403.363 702.105 393.701 732.015C386.821 753.324 382.783 775.187 382.882 797.743C383.008 812.08 385.919 825.955 390.494 839.478C393.399 848.016 397.468 856.098 401.32 864.277C403.868 869.783 406.42 875.742 402.959 881.912C399.942 887.167 395.159 890.475 389.698 892.979C380.949 897.016 371.617 898.839 362.338 901.224C362.377 900.426 362.572 899.687 362.502 898.937C360.973 886.138 359.179 873.327 358.506 860.406C357.75 847.001 358.771 833.65 358.328 820.366C358.069 811.494 359.617 802.596 360.713 793.705C362.494 778.386 364.04 762.976 366.851 747.783C367.753 742.886 368.577 737.959 369.901 733.135C371.559 727.444 374.216 721.959 370.838 716.043C370.616 715.686 370.781 715.026 370.777 714.572C371.361 707.473 372.241 700.307 372.56 693.195C372.978 683.499 375.973 674.346 378.39 665.061C381.541 652.712 384.535 640.303 388.341 628.117C391.922 616.749 395.551 605.489 399.21 594.151C401.901 585.785 404.544 577.31 407.439 569.113C412.097 556.352 416.021 543.398 420.648 530.715C425.306 517.954 429.212 504.812 433.949 492.081C437.274 483.236 439.708 474.138 442.799 465.203C445.95 456.111 449.132 446.939 451.267 437.454C452.594 431.455 454.187 425.469 453.924 419.399C453.75 415.895 455.082 411.978 452.557 408.742C449.336 404.514 445.039 404.935 440.447 405.423C435.668 405.928 433.27 407.716 433.302 412.521C433.288 423.729 430.667 434.474 428.968 445.393C426.015 463.515 420.702 480.997 414.842 498.268C411.283 508.65 406.676 518.718 401.583 528.418C394.883 541.114 386.553 552.91 379.336 565.316C378.064 567.447 376.613 568.876 373.945 568.57C374.036 566.706 374.987 565.174 375.86 563.612C381.431 553.374 387.237 543.226 392.964 533.048C399.565 521.308 405.461 509.296 410.215 496.753C414.59 485.42 417.871 473.665 420.731 461.837C426.779 436.861 429.317 411.435 429.205 385.889C429.171 374.572 428.42 363.249 428.682 351.865C428.883 342.266 429.801 332.673 433.061 323.532C434.367 320.147 434.188 316.189 436.651 313.071C437.328 312.247 435.22 310.258 437.266 309.149L437.218 309.04Z" fill="#ffffff" fill-rule="nonzero" opacity="1" stroke="none"/>
<path d="M373.819 568.431C376.487 568.737 377.938 567.308 379.21 565.177C386.427 552.771 394.757 540.975 401.457 528.279C406.581 518.501 411.187 508.433 414.716 498.129C420.576 480.858 425.919 463.297 428.842 445.254C430.619 434.365 433.192 423.512 433.176 412.382C433.144 407.577 435.542 405.789 440.321 405.283C444.913 404.796 449.18 404.454 452.431 408.603C454.926 411.918 453.623 415.756 453.798 419.26C454.061 425.33 452.468 431.316 451.141 437.315C449.084 446.83 445.824 455.971 442.673 465.064C439.582 473.999 437.039 483.146 433.822 491.942C429.056 504.752 425.18 517.815 420.522 530.576C415.864 543.337 411.941 556.292 407.313 568.974C404.34 577.141 401.775 585.646 399.084 594.012C395.425 605.35 391.796 616.61 388.215 627.978C384.409 640.164 381.415 652.573 378.264 664.922C375.925 674.237 372.852 683.36 372.434 693.056C372.115 700.167 371.265 707.255 370.651 714.433C370.625 714.966 370.49 715.547 370.712 715.904C374.09 721.82 371.432 727.305 369.775 732.996C368.373 737.79 367.627 742.747 366.725 747.644C363.993 762.867 362.368 778.246 360.587 793.566C359.569 802.487 357.943 811.355 358.202 820.227C358.614 833.589 357.593 846.941 358.38 860.267C359.131 873.218 360.877 885.92 362.376 898.798C362.446 899.548 362.329 900.317 362.212 901.085C356.421 903.281 350.269 903.618 344.177 903.798C341.544 903.867 338.912 903.935 336.279 904.004C333.011 902.923 329.726 903.283 326.429 903.908C325.977 903.915 325.556 903.842 325.104 903.849C324.222 902.875 323.287 902.967 322.327 903.591C321.611 903.585 321.002 903.531 320.285 903.526C319.433 902.473 318.486 902.831 317.431 903.237C316.979 903.244 316.557 903.171 316.106 903.178C315.332 902.156 314.32 902.217 313.281 902.811C312.564 902.805 311.956 902.751 311.239 902.746C310.183 901.524 308.949 901.228 307.476 902.016C295.667 900.712 283.788 898.657 273.397 892.746C261.408 885.856 252.303 875.919 246.907 862.893C240.602 847.798 240.697 832.189 243.299 816.373C246.547 796.557 253.892 778.231 262.267 760.033C268.324 746.907 275.354 734.519 282.728 722.174C289.428 711.105 296.694 700.436 304.555 690.087C306.77 687.144 308.732 683.923 310.43 680.69C317.925 666.401 326.171 652.494 334.057 638.356C344.76 619.248 355.495 600.061 366.198 580.952C366.689 580.147 367.149 579.42 367.61 578.694C369.873 577.488 370.898 575.532 370.888 572.996C371.557 571.265 372.225 569.533 373.537 568.231L373.819 568.431Z" fill="#ffffff" fill-rule="nonzero" opacity="1" stroke="none"/>
</g>
</g>
</svg>
