<?xml version="1.0" encoding="UTF-8" standalone="no"?>
<!DOCTYPE svg PUBLIC "-//W3C//DTD SVG 1.1//EN" "http://www.w3.org/Graphics/SVG/1.1/DTD/svg11.dtd">
<!-- Created with Vectornator (http://vectornator.io/) -->
<svg height="100%" stroke-miterlimit="10" style="fill-rule:nonzero;clip-rule:evenodd;stroke-linecap:round;stroke-linejoin:round;" version="1.1" viewBox="0 0 405.734 85.4645" width="100%" xml:space="preserve" xmlns="http://www.w3.org/2000/svg" xmlns:vectornator="http://vectornator.io" xmlns:xlink="http://www.w3.org/1999/xlink">
<defs>
<radialGradient cx="206.057" cy="38.993" gradientTransform="matrix(1 0 0 1 0 0)" gradientUnits="userSpaceOnUse" id="RadialGradient" r="213.309">
<stop offset="0" stop-color="#505050"/>
<stop offset="1" stop-color="#000000"/>
</radialGradient>
<clipPath id="TextBounds">
<rect height="123" width="65.0981" x="84.9625" y="-19.7443"/>
</clipPath>
<clipPath id="TextBounds_2">
<rect height="123" width="58.9006" x="135.656" y="-19.7443"/>
</clipPath>
<clipPath id="TextBounds_3">
<rect height="123" width="61.146" x="180.987" y="-18.5657"/>
</clipPath>
<clipPath id="TextBounds_4">
<rect height="245" width="58.8947" x="255.61" y="-18.123"/>
</clipPath>
<clipPath id="TextBounds_5">
<rect height="245" width="58.8371" x="213.343" y="-18.877"/>
</clipPath>
<clipPath id="TextBounds_6">
<rect height="123" width="61.0489" x="306.426" y="-19.1775"/>
</clipPath>
<clipPath id="TextBounds_7">
<rect height="123" width="47.1323" x="357.342" y="-19.9962"/>
</clipPath>
</defs>
<clipPath id="ArtboardFrame">
<rect height="85.4645" width="405.734" x="0" y="0"/>
</clipPath>
<g clip-path="url(#ArtboardFrame)" id="c" vectornator:layerName="c">
<path d="M-7.25165-13.0487L419.365-13.0487L419.365 91.0347L-7.25165 91.0347L-7.25165-13.0487Z" fill="url(#RadialGradient)" fill-rule="nonzero" opacity="0" stroke="none"/>
<g opacity="1">
<path clip-path="url(#TextBounds)" d="M105.243 33.635C107.279 31.7349 109.518 30.191 111.961 29.0034C114.404 27.8159 117.272 27.2221 120.563 27.2221C123.413 27.2221 125.941 27.7056 128.146 28.6726C130.352 29.6396 132.193 30.9969 133.669 32.7443C135.144 34.4917 136.264 36.5785 137.028 39.0045C137.791 41.4305 138.173 44.1026 138.173 47.0206L138.173 80.2557L125.601 80.2557L125.601 47.0206C125.601 43.8311 124.872 41.3627 123.413 39.6153C121.954 37.8678 119.731 36.9941 116.746 36.9941C114.574 36.9941 112.538 37.4861 110.638 38.4701C108.738 39.4541 106.94 40.7943 105.243 42.4909L105.243 80.2557L92.6718 80.2557L92.6718 4.62425L105.243 4.62425L105.243 33.635Z" fill="#333333" opacity="1" stroke="none"/>
<path clip-path="url(#TextBounds_2)" d="M170.95 57.9633C167.32 58.1329 164.266 58.4468 161.789 58.9048C159.312 59.3629 157.327 59.9482 155.834 60.6608C154.341 61.3733 153.273 62.2046 152.628 63.1547C151.983 64.1047 151.661 65.1396 151.661 66.2593C151.661 68.4648 152.314 70.0426 153.62 70.9926C154.927 71.9427 156.632 72.4177 158.735 72.4177C161.314 72.4177 163.545 71.9512 165.428 71.0181C167.311 70.085 169.152 68.6684 170.95 66.7683L170.95 57.9633ZM142.143 35.3145C148.149 29.8178 155.376 27.0694 163.825 27.0694C166.879 27.0694 169.61 27.5699 172.019 28.5708C174.428 29.5718 176.464 30.9629 178.127 32.7443C179.789 34.5257 181.053 36.6548 181.919 39.1317C182.784 41.6087 183.216 44.3231 183.216 47.2751L183.216 80.2557L177.516 80.2557C176.328 80.2557 175.412 80.0776 174.768 79.7213C174.123 79.365 173.614 78.644 173.241 77.5582L172.121 73.7919C170.798 74.9795 169.508 76.0229 168.253 76.922C166.998 77.8212 165.691 78.5761 164.334 79.1869C162.977 79.7976 161.526 80.2642 159.982 80.5865C158.439 80.9089 156.734 81.07 154.867 81.07C152.662 81.07 150.626 80.7732 148.76 80.1794C146.894 79.5856 145.282 78.6949 143.925 77.5073C142.567 76.3198 141.516 74.8438 140.769 73.0794C140.023 71.315 139.649 69.2622 139.649 66.921C139.649 65.5977 139.87 64.2828 140.311 62.9765C140.752 61.6702 141.473 60.4232 142.474 59.2357C143.475 58.0481 144.773 56.9284 146.368 55.8765C147.962 54.8247 149.922 53.9085 152.246 53.1281C154.57 52.3477 157.276 51.7115 160.364 51.2195C163.452 50.7275 166.981 50.4307 170.95 50.3289L170.95 47.2751C170.95 43.7802 170.204 41.193 168.711 39.5135C167.218 37.8339 165.063 36.9941 162.247 36.9941C160.211 36.9941 158.523 37.2316 157.183 37.7067C155.843 38.1817 154.664 38.7161 153.646 39.3099C152.628 39.9037 151.703 40.4381 150.872 40.9131C150.041 41.3881 149.116 41.6256 148.098 41.6256C147.216 41.6256 146.469 41.3966 145.859 40.9386C145.248 40.4805 144.756 39.9461 144.383 39.3353L142.143 35.3145Z" fill="#333333" opacity="1" stroke="none"/>
<path clip-path="url(#TextBounds_3)" d="M206.103 82.2487C201.556 82.2487 198.07 80.9678 195.644 78.406C193.218 75.8443 192.005 72.307 192.005 67.7942L192.005 38.6308L186.661 38.6308C185.982 38.6308 185.405 38.4103 184.93 37.9692C184.455 37.5281 184.218 36.8664 184.218 35.9842L184.218 30.9964L192.616 29.6222L195.262 15.3713C195.432 14.6927 195.754 14.1668 196.229 13.7936C196.704 13.4203 197.315 13.2337 198.061 13.2337L204.576 13.2337L204.576 29.6731L218.522 29.6731L218.522 38.6308L204.576 38.6308L204.576 66.929C204.576 68.5577 204.975 69.8301 205.772 70.7462C206.57 71.6623 207.664 72.1204 209.055 72.1204C209.835 72.1204 210.489 72.0271 211.015 71.8404C211.54 71.6538 211.999 71.4587 212.389 71.2551C212.779 71.0516 213.127 70.8565 213.432 70.6698C213.737 70.4832 214.043 70.3899 214.348 70.3899C214.721 70.3899 215.027 70.4832 215.264 70.6698C215.502 70.8565 215.756 71.1364 216.028 71.5096L219.794 77.6171C217.962 79.144 215.858 80.2977 213.483 81.0781C211.108 81.8585 208.648 82.2487 206.103 82.2487Z" fill="#333333" opacity="1" stroke="none"/>
<path clip-path="url(#TextBounds_4)" d="M275.89 35.2563C277.926 33.3561 280.166 31.8123 282.609 30.6247C285.052 29.4372 287.919 28.8434 291.21 28.8434C294.06 28.8434 296.588 29.3269 298.794 30.2939C300.999 31.2609 302.84 32.6182 304.316 34.3656C305.792 36.113 306.912 38.1997 307.675 40.6258C308.438 43.0518 308.82 45.7239 308.82 48.6419L308.82 81.877L296.249 81.877L296.249 48.6419C296.249 45.4524 295.519 42.984 294.06 41.2365C292.601 39.4891 290.379 38.6154 287.393 38.6154C285.221 38.6154 283.186 39.1074 281.285 40.0914C279.385 41.0754 277.587 42.4156 275.89 44.1122L275.89 81.877L263.319 81.877L263.319 6.24554L275.89 6.24554L275.89 35.2563Z" fill="#333333" opacity="1" stroke="none"/>
<path clip-path="url(#TextBounds_5)" d="M258.461 39.9482C258.088 40.4232 257.723 40.7964 257.367 41.0679C257.01 41.3393 256.493 41.4751 255.814 41.4751C255.17 41.4751 254.542 41.28 253.931 40.8897C253.32 40.4995 252.591 40.0584 251.743 39.5665C250.894 39.0745 249.885 38.6334 248.714 38.2432C247.544 37.853 246.093 37.6579 244.363 37.6579C242.157 37.6579 240.223 38.0565 238.56 38.8539C236.898 39.6513 235.515 40.7964 234.412 42.2894C233.31 43.7823 232.487 45.5891 231.944 47.7098C231.401 49.8305 231.13 52.2311 231.13 54.9116C231.13 57.6939 231.427 60.1709 232.02 62.3424C232.614 64.514 233.471 66.3377 234.591 67.8137C235.71 69.2897 237.067 70.4094 238.662 71.1729C240.257 71.9363 242.055 72.318 244.057 72.318C246.059 72.318 247.679 72.072 248.918 71.58C250.156 71.088 251.2 70.5452 252.048 69.9514C252.896 69.3576 253.634 68.8147 254.262 68.3227C254.89 67.8307 255.594 67.5847 256.374 67.5847C257.392 67.5847 258.155 67.9749 258.664 68.7553L262.278 73.3359C260.887 74.9646 259.377 76.3303 257.748 77.4331C256.12 78.5358 254.432 79.418 252.684 80.0797C250.937 80.7413 249.138 81.2079 247.289 81.4793C245.44 81.7508 243.599 81.8865 241.767 81.8865C238.543 81.8865 235.507 81.2842 232.657 80.0797C229.806 78.8751 227.312 77.1192 225.175 74.8119C223.037 72.5046 221.349 69.6799 220.111 66.3377C218.872 62.9956 218.253 59.1869 218.253 54.9116C218.253 51.0774 218.804 47.5232 219.907 44.2489C221.01 40.9746 222.63 38.1414 224.768 35.7493C226.905 33.3571 229.552 31.4825 232.707 30.1252C235.863 28.768 239.494 28.0894 243.599 28.0894C247.501 28.0894 250.92 28.7171 253.855 29.9726C256.79 31.228 259.428 33.0263 261.769 35.3675L258.461 39.9482Z" fill="#333333" opacity="1" stroke="none"/>
<path clip-path="url(#TextBounds_6)" d="M347.777 48.7072C347.777 47.0785 347.548 45.5431 347.09 44.1011C346.632 42.659 345.945 41.3951 345.029 40.3093C344.113 39.2235 342.951 38.3668 341.543 37.7391C340.135 37.1114 338.497 36.7975 336.631 36.7975C333.001 36.7975 330.142 37.8324 328.055 39.9021C325.969 41.9719 324.637 44.9069 324.06 48.7072L347.777 48.7072ZM323.805 56.2907C324.009 58.9712 324.484 61.287 325.231 63.238C325.977 65.189 326.961 66.8007 328.183 68.0731C329.404 69.3455 330.855 70.2955 332.534 70.9233C334.214 71.551 336.071 71.8648 338.107 71.8648C340.143 71.8648 341.899 71.6273 343.375 71.1523C344.851 70.6773 346.14 70.1513 347.243 69.5745C348.346 68.9977 349.313 68.4718 350.144 67.9967C350.975 67.5217 351.781 67.2842 352.562 67.2842C353.614 67.2842 354.394 67.6744 354.903 68.4548L358.517 73.0354C357.125 74.6641 355.565 76.0298 353.834 77.1326C352.104 78.2353 350.297 79.1175 348.414 79.7792C346.531 80.4408 344.613 80.9074 342.662 81.1788C340.711 81.4502 338.82 81.586 336.988 81.586C333.357 81.586 329.981 80.9837 326.859 79.7792C323.738 78.5746 321.023 76.7933 318.716 74.4351C316.409 72.0769 314.593 69.1589 313.27 65.681C311.947 62.2031 311.285 58.1738 311.285 53.5932C311.285 50.0305 311.862 46.6798 313.015 43.5412C314.169 40.4026 315.823 37.6712 317.978 35.347C320.132 33.0227 322.762 31.182 325.867 29.8247C328.971 28.4675 332.475 27.7889 336.377 27.7889C339.668 27.7889 342.705 28.3148 345.487 29.3667C348.269 30.4185 350.662 31.9539 352.663 33.9728C354.665 35.9916 356.235 38.4686 357.371 41.4036C358.508 44.3386 359.076 47.6892 359.076 51.4555C359.076 53.3557 358.873 54.6365 358.466 55.2982C358.058 55.9598 357.278 56.2907 356.124 56.2907L323.805 56.2907Z" fill="#333333" opacity="1" stroke="none"/>
<path clip-path="url(#TextBounds_7)" d="M382.457 80.8181C377.911 80.8181 374.424 79.5372 371.998 76.9755C369.572 74.4137 368.359 70.8764 368.359 66.3637L368.359 37.2003L363.015 37.2003C362.336 37.2003 361.76 36.9797 361.285 36.5386C360.81 36.0975 360.572 35.4359 360.572 34.5537L360.572 29.5659L368.97 28.1917L371.616 13.9408C371.786 13.2622 372.108 12.7362 372.583 12.363C373.058 11.9898 373.669 11.8031 374.416 11.8031L380.93 11.8031L380.93 28.2426L394.876 28.2426L394.876 37.2003L380.93 37.2003L380.93 65.4984C380.93 67.1271 381.329 68.3995 382.126 69.3156C382.924 70.2318 384.018 70.6898 385.409 70.6898C386.19 70.6898 386.843 70.5965 387.369 70.4099C387.895 70.2233 388.353 70.0282 388.743 69.8246C389.133 69.621 389.481 69.4259 389.786 69.2393C390.092 69.0527 390.397 68.9594 390.702 68.9594C391.076 68.9594 391.381 69.0527 391.619 69.2393C391.856 69.4259 392.111 69.7058 392.382 70.0791L396.148 76.1866C394.316 77.7135 392.212 78.8671 389.837 79.6475C387.462 80.4279 385.002 80.8181 382.457 80.8181Z" fill="#333333" opacity="1" stroke="none"/>
</g>
<g opacity="1">
<path d="M4.96054 27.1027C13.3252 5.43987 37.5592-5.38213 59.0888 2.93107C80.6183 11.2443 91.2905 35.5446 82.9258 57.2075C74.5611 78.8703 50.3271 89.6923 28.7976 81.3791C7.26807 73.0659-3.40414 48.7655 4.96054 27.1027Z" fill="#db1d2e" fill-rule="nonzero" opacity="1" stroke="none"/>
<path d="M60.7781 41.7196C58.8329 39.7836 56.9134 37.8198 54.9373 35.9247C53.7491 34.7866 52.3438 33.9194 50.9682 33.0335C49.9041 32.351 48.8233 31.6922 47.7092 31.0808C47.3549 30.8912 47.0031 30.695 46.626 30.5644C45.8462 30.0973 45.0205 29.7105 44.2023 29.3041C43.6547 29.0322 43.0636 28.8342 42.5236 28.5427C41.4567 27.9646 40.3948 27.3735 39.3688 26.7283C38.7276 26.3297 38.1132 25.8812 37.7047 25.2102C37.4842 24.8684 37.1328 24.7101 36.798 24.528C36.4829 24.3535 36.1536 24.1962 35.8091 24.0782C35.5454 23.984 35.5961 23.8526 35.6697 23.6622C36.215 22.25 36.7667 20.8404 37.2834 19.4248C37.9695 17.5312 38.486 15.5722 39.3223 13.7366C39.4089 13.5511 39.4889 13.3632 39.5755 13.1777C39.6248 13.1666 39.6636 13.1438 39.6643 13.0837C39.7354 13.0357 39.7981 13.0675 39.8609 13.0992C40.3312 13.1827 40.7413 13.092 41.1099 12.7589C41.3368 12.5597 41.4223 12.2606 41.6532 12.0706L41.6532 12.0706C41.8897 12.1769 42.1088 12.3672 42.4028 12.2468C42.4354 12.2594 42.4615 12.2694 42.4942 12.2821C42.7023 12.4228 42.908 12.5701 43.1734 12.4462C43.2321 12.4689 43.2909 12.4916 43.3431 12.5117C43.5375 12.7076 43.7743 12.716 44.0288 12.6784C44.0876 12.7011 44.1398 12.7212 44.2011 12.7374C44.3719 12.9165 44.5648 12.9608 44.7994 12.8778C46.0563 13.1971 47.3157 13.5098 48.57 13.8357C50.0303 14.2108 51.4819 14.628 52.9524 14.9769C54.1465 15.2644 55.3218 15.6201 56.5184 15.901C57.1715 16.0551 57.8348 16.1829 58.473 16.4142C58.939 16.5866 59.3686 16.5034 59.7747 16.2678C60.0643 16.1004 60.3573 16.138 60.6492 16.1979C61.9496 16.4434 63.259 16.6849 64.5543 16.9435C65.4743 17.1251 66.3805 17.3618 67.3041 17.5147C68.2654 17.667 69.2031 17.9385 70.1717 18.0333C70.82 18.1025 71.4655 18.2763 72.1091 18.3965C72.2814 18.4554 72.3485 18.5342 72.2895 18.7454C71.5347 21.4577 70.7211 24.1474 69.7002 26.7721C68.8709 28.9198 67.9959 31.0499 66.9497 33.0988C66.6728 33.6409 66.4025 34.1856 66.1257 34.7278C66.0571 34.7693 66.0448 34.84 66.0235 34.9147C65.8535 35.0831 65.7437 35.2897 65.6705 35.5181C65.619 35.5737 65.5701 35.6227 65.5774 35.701C65.4407 35.8218 65.3381 35.9709 65.2983 36.1517C65.199 36.2341 65.1428 36.3408 65.1233 36.4691C65.0214 36.558 64.909 36.6354 64.9015 36.791C64.7876 36.8527 64.7732 36.9678 64.7391 37.0754C64.651 37.1094 64.6206 37.1882 64.6097 37.2745C64.4632 37.3237 64.4542 37.4636 64.4086 37.5818C64.2741 37.6582 64.2143 37.7936 64.1701 37.9274L64.0791 38.0659C63.9678 38.121 63.9272 38.2261 63.8932 38.3337C63.8091 38.3767 63.7826 38.4646 63.7431 38.5475C63.6848 38.5627 63.667 38.6087 63.6689 38.6622C63.6457 38.6834 63.6199 38.7112 63.5902 38.73C63.5344 38.7386 63.5347 38.7765 63.526 38.8184C63.4786 38.8831 63.4376 38.9503 63.3901 39.015C63.2861 39.0125 63.2843 39.0949 63.272 39.1656C63.206 39.2005 63.165 39.2677 63.1462 39.3359C63.0889 39.3289 63.0893 39.3667 63.0871 39.4112C62.8439 39.5361 62.766 39.8155 62.5608 39.9778C62.4698 39.9804 62.4365 40.0279 62.4477 40.1152C62.4426 40.1284 62.422 40.143 62.4104 40.1537C62.2509 40.1977 62.1294 40.2791 62.1509 40.4761C62.1458 40.4892 62.1317 40.5064 62.1135 40.5145C62.0185 40.508 61.9787 40.553 61.9874 40.6469C61.945 40.6985 61.9026 40.75 61.8562 40.7925C61.7507 40.7744 61.7173 40.8219 61.7326 40.9184L61.6014 41.0639C61.4958 41.0458 61.4665 41.1024 61.4817 41.1989C61.4321 41.308 61.3273 41.3657 61.2356 41.4284C61.1406 41.4219 61.0942 41.4643 61.1095 41.5608C61.0348 41.6376 60.9576 41.721 60.8829 41.7978C60.8633 41.7903 60.8503 41.7852 60.8332 41.7711L60.7665 41.7303L60.7781 41.7196Z" fill="#ffffff" fill-rule="nonzero" opacity="1" stroke="none"/>
<path d="M37.7022 25.2168C38.1042 25.8852 38.7251 26.3363 39.3663 26.7348C40.3948 27.3735 41.4541 27.9712 42.5211 28.5492C43.0611 28.8408 43.6457 29.0363 44.1998 29.3106C45.0114 29.7146 45.8372 30.1014 46.6234 30.571C46.7251 30.8518 46.5308 31.0635 46.442 31.2934C46.0565 32.2917 45.9927 33.3313 46.0525 34.3808C46.1137 35.4459 46.2711 36.4954 46.4908 37.5387C46.5867 38.0286 46.763 38.5042 46.7694 39.0123C46.7717 39.6472 46.6958 40.2519 46.3033 40.8022C45.744 41.5901 45.1061 42.3098 44.4997 43.0643C43.5888 44.1994 42.695 45.3486 41.8379 46.5196C41.0539 47.598 40.2765 48.679 39.5567 49.8048C38.7985 50.9913 38.0142 52.1678 37.3163 53.3926C36.0174 55.6685 34.8767 58.0205 34.0704 60.5167C33.4962 62.295 33.1592 64.1197 33.1674 66.0021C33.178 67.1986 33.4209 68.3566 33.8027 69.4852C34.0452 70.1977 34.3848 70.8722 34.7063 71.5548C34.9189 72.0143 35.1319 72.5116 34.8431 73.0265C34.5912 73.4651 34.1921 73.7412 33.7363 73.9501C33.0062 74.2871 32.2274 74.4392 31.4529 74.6383C31.4562 74.5716 31.4725 74.51 31.4666 74.4473C31.339 73.3792 31.1893 72.31 31.1331 71.2317C31.07 70.113 31.1553 68.9987 31.1183 67.8901C31.0966 67.1497 31.2259 66.4071 31.3174 65.6651C31.466 64.3866 31.595 63.1006 31.8296 61.8326C31.9049 61.424 31.9736 61.0128 32.0841 60.6101C32.2225 60.1353 32.4442 59.6775 32.1623 59.1837C32.1438 59.1539 32.1576 59.0989 32.1572 59.061C32.206 58.4685 32.2794 57.8704 32.306 57.2769C32.341 56.4678 32.5909 55.7039 32.7926 54.9289C33.0555 53.8984 33.3054 52.8628 33.6231 51.8458C33.9219 50.897 34.2248 49.9573 34.5301 49.0111C34.7547 48.3129 34.9753 47.6056 35.2169 46.9216C35.6057 45.8565 35.9331 44.7754 36.3193 43.717C36.708 42.652 37.034 41.5552 37.4293 40.4927C37.7068 39.7546 37.91 38.9953 38.1679 38.2496C38.4309 37.4908 38.6965 36.7254 38.8746 35.9338C38.9854 35.4331 39.1183 34.9335 39.0964 34.4269C39.0818 34.1345 39.193 33.8076 38.9823 33.5376C38.7135 33.1847 38.3549 33.2198 37.9716 33.2605C37.5728 33.3028 37.3727 33.4519 37.3753 33.8529C37.3742 34.7884 37.1555 35.685 37.0136 36.5963C36.7672 38.1087 36.3238 39.5677 35.8348 41.0091C35.5377 41.8755 35.1532 42.7158 34.7282 43.5252C34.169 44.5848 33.4739 45.5692 32.8716 46.6046C32.7654 46.7825 32.6443 46.9018 32.4217 46.8762C32.4292 46.7206 32.5086 46.5928 32.5814 46.4624C33.0464 45.608 33.5309 44.7611 34.0089 43.9117C34.5597 42.9319 35.0518 41.9294 35.4485 40.8826C35.8137 39.9368 36.0876 38.9557 36.3262 37.9686C36.831 35.8843 37.0428 33.7623 37.0334 31.6303C37.0306 30.6858 36.9679 29.7409 36.9897 28.7908C37.0065 27.9897 37.0831 27.1891 37.3552 26.4262C37.4643 26.1438 37.4493 25.8135 37.6548 25.5532C37.7113 25.4845 37.5354 25.3184 37.7062 25.2259L37.7022 25.2168Z" fill="#ffffff" fill-rule="nonzero" opacity="1" stroke="none"/>
<path d="M32.4111 46.8646C32.6338 46.8902 32.7549 46.7709 32.861 46.593C33.4634 45.5576 34.1585 44.5732 34.7177 43.5136C35.1453 42.6976 35.5297 41.8574 35.8242 40.9975C36.3133 39.5561 36.7592 38.0905 37.0031 36.5847C37.1515 35.6759 37.3662 34.7702 37.3648 33.8413C37.3621 33.4403 37.5623 33.2911 37.9611 33.2489C38.3444 33.2082 38.7004 33.1797 38.9717 33.526C39.18 33.8026 39.0713 34.1229 39.0859 34.4153C39.1078 34.9219 38.9749 35.4215 38.8641 35.9221C38.6925 36.7163 38.4204 37.4791 38.1574 38.238C37.8995 38.9837 37.6872 39.747 37.4188 40.4811C37.021 41.5502 36.6975 42.6404 36.3088 43.7054C35.9201 44.7704 35.5926 45.8515 35.2064 46.9099C34.9583 47.5915 34.7442 48.3013 34.5196 48.9995C34.2142 49.9457 33.9114 50.8854 33.6126 51.8342C33.2949 52.8512 33.045 53.8868 32.7821 54.9173C32.5869 55.6948 32.3304 56.4562 32.2955 57.2653C32.2689 57.8588 32.198 58.4503 32.1467 59.0494C32.1445 59.0938 32.1333 59.1423 32.1518 59.1721C32.4337 59.6659 32.2119 60.1236 32.0736 60.5985C31.9566 60.9986 31.8944 61.4124 31.8191 61.821C31.591 63.0915 31.4555 64.375 31.3068 65.6535C31.2219 66.398 31.0861 67.1381 31.1078 67.8785C31.1422 68.9937 31.057 70.108 31.1226 71.2201C31.1853 72.301 31.331 73.361 31.4561 74.4357C31.4619 74.4984 31.4522 74.5625 31.4424 74.6267C30.9591 74.8099 30.4457 74.838 29.9373 74.8531C29.7176 74.8588 29.4979 74.8645 29.2781 74.8702C29.0054 74.78 28.7313 74.81 28.4561 74.8623C28.4184 74.8628 28.3832 74.8568 28.3455 74.8573C28.2719 74.776 28.1939 74.7837 28.1138 74.8358C28.054 74.8353 28.0032 74.8308 27.9434 74.8303C27.8723 74.7425 27.7933 74.7724 27.7052 74.8063C27.6675 74.8068 27.6323 74.8008 27.5946 74.8013C27.53 74.716 27.4455 74.7211 27.3589 74.7707C27.299 74.7702 27.2483 74.7657 27.1884 74.7652C27.1003 74.6633 26.9973 74.6386 26.8744 74.7044C25.8888 74.5955 24.8974 74.424 24.0303 73.9307C23.0297 73.3556 22.2698 72.5264 21.8195 71.4393C21.2933 70.1795 21.3012 68.8769 21.5184 67.5569C21.7894 65.9031 22.4025 64.3737 23.1014 62.8549C23.6069 61.7595 24.1936 60.7257 24.809 59.6954C25.3682 58.7716 25.9745 57.8812 26.6306 57.0176C26.8154 56.7719 26.9792 56.5031 27.1209 56.2333C27.7464 55.0408 28.4346 53.8801 29.0927 52.7003C29.986 51.1056 30.8818 49.5043 31.7751 47.9096C31.8161 47.8424 31.8545 47.7817 31.8929 47.7211C32.0818 47.6204 32.1673 47.4572 32.1665 47.2456C32.2223 47.1011 32.2781 46.9566 32.3876 46.8479L32.4111 46.8646Z" fill="#ffffff" fill-rule="nonzero" opacity="1" stroke="none"/>
</g>
</g>
</svg>
