<svg xmlns="http://www.w3.org/2000/svg" viewBox="0 0 676.6 457.7">
    <title>omnia-logo</title>
    <text transform="translate(193.73 250.16)"
          style="font-size:117.81649017333984px;fill:#e0e0e0;font-family:Nexa Bold">
        <tspan x="23.8" y="0" style="fill:#2bafe3">OMNIA</tspan>
    </text>
    <path d="M127.09,308.11a7.13,7.13,0,1,1,.45-14.25,7.14,7.14,0,0,1,6.92,7.18A7.07,7.07,0,0,1,127.09,308.11Z"
          style="fill:#2bafe3;fill-rule:evenodd"/>
    <path d="M103.2,308.11a7.13,7.13,0,1,1,7.17-7.08A7.07,7.07,0,0,1,103.2,308.11Z"
          style="fill:#2bafe3;fill-rule:evenodd"/>
    <path d="M103.23,260.81A7.11,7.11,0,1,1,103,246.6,7.11,7.11,0,1,1,103.23,260.81Z"
          style="fill:#2bafe3;fill-rule:evenodd"/>
    <path d="M127.24,260.81a7.11,7.11,0,1,1,.14-14.21A7.11,7.11,0,1,1,127.24,260.81Z"
          style="fill:#2bafe3;fill-rule:evenodd"/>
    <path d="M127.26,284.46a7.11,7.11,0,1,1,7.18-7A7,7,0,0,1,127.26,284.46Z" style="fill:#2bafe3;fill-rule:evenodd"/>
    <path d="M103.22,284.46a7.11,7.11,0,1,1,7.12-7.08A7,7,0,0,1,103.22,284.46Z" style="fill:#2bafe3;fill-rule:evenodd"/>
    <path d="M103.13,166.22a7.11,7.11,0,1,1,0-14.21A7.11,7.11,0,1,1,103.13,166.22Z"
          style="fill:#2bafe3;fill-rule:evenodd"/>
    <path d="M127.27,166.22a7.11,7.11,0,1,1,.08-14.21A7.11,7.11,0,1,1,127.27,166.22Z"
          style="fill:#2bafe3;fill-rule:evenodd"/>
    <path d="M127.21,142.56a7.11,7.11,0,1,1,.19-14.22A7.11,7.11,0,1,1,127.21,142.56Z"
          style="fill:#2bafe3;fill-rule:evenodd"/>
    <path d="M127.17,237.16a7.11,7.11,0,1,1,.28-14.22A7.11,7.11,0,1,1,127.17,237.16Z"
          style="fill:#2bafe3;fill-rule:evenodd"/>
    <path d="M103.14,237.16a7.11,7.11,0,1,1,7.2-7A7,7,0,0,1,103.14,237.16Z" style="fill:#2bafe3;fill-rule:evenodd"/>
    <path d="M103.24,331.75a7.11,7.11,0,1,1,7.1-7.1A7,7,0,0,1,103.24,331.75Z" style="fill:#2bafe3;fill-rule:evenodd"/>
    <path d="M103.17,142.56a7.11,7.11,0,1,1,7.18-7A7,7,0,0,1,103.17,142.56Z" style="fill:#2bafe3;fill-rule:evenodd"/>
    <path d="M127.33,331.75a7.11,7.11,0,1,1,0-14.22A7.11,7.11,0,1,1,127.33,331.75Z"
          style="fill:#2bafe3;fill-rule:evenodd"/>
    <path d="M175.36,213.51a6.94,6.94,0,0,1-7.09-7.1,7.06,7.06,0,0,1,7.28-7.17,7.26,7.26,0,0,1,7.09,7.26A7.12,7.12,0,0,1,175.36,213.51Z"
          style="fill:#9a9a9a;fill-rule:evenodd"/>
    <path d="M103.08,213.51a7.11,7.11,0,1,1,7.29-7.14A7.06,7.06,0,0,1,103.08,213.51Z"
          style="fill:#9a9a9a;fill-rule:evenodd"/>
    <path d="M55.13,213.51a7.12,7.12,0,0,1-7.31-7,7.27,7.27,0,0,1,7.25-7.29,7,7,0,0,1,7.12,7.14A6.93,6.93,0,0,1,55.13,213.51Z"
          style="fill:#9a9a9a;fill-rule:evenodd"/>
    <path d="M144.23,206.44a7,7,0,0,1,7-7.2,7.12,7.12,0,0,1,7.26,7.23,7,7,0,0,1-7.18,7A6.87,6.87,0,0,1,144.23,206.44Z"
          style="fill:#9a9a9a;fill-rule:evenodd"/>
    <path d="M127.3,213.51a7.11,7.11,0,1,1,7.16-7.09A7,7,0,0,1,127.3,213.51Z" style="fill:#9a9a9a;fill-rule:evenodd"/>
    <path d="M86.22,206.32a6.86,6.86,0,0,1-7,7.2A7,7,0,0,1,72,206.4a7.12,7.12,0,0,1,7.32-7.16A7,7,0,0,1,86.22,206.32Z"
          style="fill:#9a9a9a;fill-rule:evenodd"/>
    <path d="M175.4,189.86a7.11,7.11,0,1,1,.1-14.22A7.11,7.11,0,1,1,175.4,189.86Z"
          style="fill:#9a9a9a;fill-rule:evenodd"/>
    <path d="M55,189.86a7.11,7.11,0,1,1,0-14.22A7.11,7.11,0,1,1,55,189.86Z" style="fill:#9a9a9a;fill-rule:evenodd"/>
    <path d="M103.17,189.86a7.11,7.11,0,1,1,7.16-7A7,7,0,0,1,103.17,189.86Z" style="fill:#9a9a9a;fill-rule:evenodd"/>
    <path d="M127.17,189.86a7.11,7.11,0,0,1,.1-14.21A7.11,7.11,0,1,1,127.17,189.86Z"
          style="fill:#9a9a9a;fill-rule:evenodd"/>
    <path d="M144.22,182.7a7.12,7.12,0,1,1,7,7.16A6.91,6.91,0,0,1,144.22,182.7Z"
          style="fill:#9a9a9a;fill-rule:evenodd"/>
    <path d="M86.23,182.78a7.11,7.11,0,1,1-7-7.14A6.88,6.88,0,0,1,86.23,182.78Z"
          style="fill:#9a9a9a;fill-rule:evenodd"/>
    <text transform="translate(221.93 309.87)"
          style="opacity:0.87;font-size:61.766658782958984px;fill:#7b5fa8;font-family:Nexa Bold">LIV
        <tspan x="98.39" y="0" style="letter-spacing:1px">E</tspan>
        <tspan x="138.23" y="0">STREAM</tspan>
    </text>
    <path d="M221.93,257.73l61.16-.27,134.55-.23,134.55,0.23,61.16,0.27-61.16.27-134.55.23L283.09,258Z"
          style="fill:#b3b3b3"/>
</svg>
