<svg xmlns="http://www.w3.org/2000/svg" viewBox="0 0 451.79 185.88"><defs><style>.a{font-size:84px;fill:#e0e0e0;}.a,.e{font-family:Nexa Bold;}.b,.c{fill:#2bafe3;}.c,.d{fill-rule:evenodd;}.d{fill:#9a9a9a;}.e{font-size:24.7px;fill:#b3b3b3;}</style></defs><title>omnia-logo</title><text class="a" transform="translate(125.81 107.1)"> <tspan class="b" x="16.97" y="0">OMNIA</tspan></text><path class="c" d="M78.3,148.42a5.08,5.08,0,1,1,.32-10.16,5.09,5.09,0,0,1,4.93,5.12A5,5,0,0,1,78.3,148.42Z"/><path class="c" d="M61.27,148.42a5.08,5.08,0,1,1,5.11-5A5,5,0,0,1,61.27,148.42Z"/><path class="c" d="M61.29,114.7a5.07,5.07,0,1,1-.13-10.13A5.07,5.07,0,1,1,61.29,114.7Z"/><path class="c" d="M78.41,114.7a5.07,5.07,0,1,1,.1-10.13A5.07,5.07,0,1,1,78.41,114.7Z"/><path class="c" d="M78.42,131.56a5.07,5.07,0,1,1,5.12-5A5,5,0,0,1,78.42,131.56Z"/><path class="c" d="M61.28,131.56a5.07,5.07,0,1,1,5.08-5A5,5,0,0,1,61.28,131.56Z"/><path class="c" d="M61.22,47.26a5.07,5.07,0,1,1,0-10.13A5.07,5.07,0,1,1,61.22,47.26Z"/><path class="c" d="M78.43,47.26a5.07,5.07,0,1,1,.06-10.13A5.07,5.07,0,1,1,78.43,47.26Z"/><path class="c" d="M78.39,30.39a5.07,5.07,0,1,1,.14-10.14A5.07,5.07,0,1,1,78.39,30.39Z"/><path class="c" d="M78.36,97.84a5.07,5.07,0,1,1,.2-10.14A5.07,5.07,0,1,1,78.36,97.84Z"/><path class="c" d="M61.23,97.83a5.07,5.07,0,1,1,5.13-5A5,5,0,0,1,61.23,97.83Z"/><path class="c" d="M61.3,165.28a5.07,5.07,0,1,1,5.06-5.06A5,5,0,0,1,61.3,165.28Z"/><path class="c" d="M61.25,30.39a5.07,5.07,0,1,1,5.12-5A5,5,0,0,1,61.25,30.39Z"/><path class="c" d="M78.47,165.28a5.07,5.07,0,1,1,0-10.14A5.07,5.07,0,1,1,78.47,165.28Z"/><path class="d" d="M112.71,81a5,5,0,0,1-5.06-5.06,5,5,0,0,1,5.19-5.11A5.18,5.18,0,0,1,117.9,76,5.08,5.08,0,0,1,112.71,81Z"/><path class="d" d="M61.18,81a5.07,5.07,0,1,1,5.2-5.09A5,5,0,0,1,61.18,81Z"/><path class="d" d="M27,81a5.08,5.08,0,0,1-5.21-5A5.18,5.18,0,0,1,27,70.8,5,5,0,0,1,32,75.89,4.94,4.94,0,0,1,27,81Z"/><path class="d" d="M90.52,75.93a5,5,0,0,1,5-5.14A5.08,5.08,0,0,1,100.7,76a5,5,0,0,1-5.12,5A4.89,4.89,0,0,1,90.52,75.93Z"/><path class="d" d="M78.46,81a5.07,5.07,0,1,1,5.1-5.06A5,5,0,0,1,78.46,81Z"/><path class="d" d="M49.16,75.85a4.89,4.89,0,0,1-5,5.13A5,5,0,0,1,39,75.91a5.08,5.08,0,0,1,5.22-5.11A5,5,0,0,1,49.16,75.85Z"/><path class="d" d="M112.74,64.11A5.07,5.07,0,1,1,112.82,54,5.07,5.07,0,1,1,112.74,64.11Z"/><path class="d" d="M26.91,64.11a5.07,5.07,0,1,1,0-10.14A5.07,5.07,0,1,1,26.91,64.11Z"/><path class="d" d="M61.25,64.11a5.07,5.07,0,1,1,5.11-5A5,5,0,0,1,61.25,64.11Z"/><path class="d" d="M78.36,64.11A5.07,5.07,0,0,1,78.43,54,5.07,5.07,0,1,1,78.36,64.11Z"/><path class="d" d="M90.52,59a5.07,5.07,0,1,1,5,5.1A4.93,4.93,0,0,1,90.52,59Z"/><path class="d" d="M49.17,59.06a5.07,5.07,0,1,1-5-5.09A4.9,4.9,0,0,1,49.17,59.06Z"/><text class="e" transform="translate(147.92 133.32)">C<tspan x="17.07" y="0">HUR</tspan><tspan x="70.17" y="0">C</tspan><tspan x="87.24" y="0">H M</tspan><tspan x="131.7" y="0">A</tspan><tspan x="150.99" y="0">DE SIMPLE</tspan></text></svg>