<svg xmlns="http://www.w3.org/2000/svg" viewBox="0 0 662.14 188.23">
    <text transform="translate(119.82 121.69)"
          style="font-size:143.96888732910156px;fill:#e0e0e0;font-family:NexaBold, Nexa Bold">
        <tspan x="29.08" y="0" style="fill:#2bafe3">OMNIA</tspan>
    </text>
    <path d="M78.3,148.42a5.08,5.08,0,1,1,.33-10.16,5.09,5.09,0,0,1,4.93,5.12A5,5,0,0,1,78.3,148.42Z"
          style="fill:#2bafe3;fill-rule:evenodd"/>
    <path d="M61.27,148.42a5,5,0,0,1-5.15-5,5.13,5.13,0,0,1,10.26,0A5,5,0,0,1,61.27,148.42Z"
          style="fill:#2bafe3;fill-rule:evenodd"/>
    <path d="M61.29,114.7a5.07,5.07,0,1,1-.13-10.13,5.07,5.07,0,1,1,.13,10.13Z" style="fill:#2bafe3;fill-rule:evenodd"/>
    <path d="M78.41,114.7a5.07,5.07,0,1,1,.1-10.13,5.07,5.07,0,1,1-.1,10.13Z" style="fill:#2bafe3;fill-rule:evenodd"/>
    <path d="M78.42,131.56a5.07,5.07,0,1,1,5.12-5A5,5,0,0,1,78.42,131.56Z" style="fill:#2bafe3;fill-rule:evenodd"/>
    <path d="M61.28,131.56a5.07,5.07,0,1,1,5.08-5A5,5,0,0,1,61.28,131.56Z" style="fill:#2bafe3;fill-rule:evenodd"/>
    <path d="M61.22,47.26a5.07,5.07,0,1,1,0-10.14,5.07,5.07,0,1,1,0,10.14Z" style="fill:#2bafe3;fill-rule:evenodd"/>
    <path d="M78.43,47.26a5.07,5.07,0,1,1,.06-10.14,5.07,5.07,0,1,1-.06,10.14Z" style="fill:#2bafe3;fill-rule:evenodd"/>
    <path d="M78.39,30.39a5.07,5.07,0,1,1,5.15-5A5,5,0,0,1,78.39,30.39Z" style="fill:#2bafe3;fill-rule:evenodd"/>
    <path d="M78.36,97.84a5.07,5.07,0,1,1,.2-10.14,5.07,5.07,0,1,1-.2,10.14Z" style="fill:#2bafe3;fill-rule:evenodd"/>
    <path d="M61.23,97.83a5.07,5.07,0,1,1,5.13-5A5,5,0,0,1,61.23,97.83Z" style="fill:#2bafe3;fill-rule:evenodd"/>
    <path d="M61.3,165.28a5.07,5.07,0,1,1,5.06-5.07A5,5,0,0,1,61.3,165.28Z" style="fill:#2bafe3;fill-rule:evenodd"/>
    <path d="M61.25,30.39a5.07,5.07,0,1,1,5.11-5A5,5,0,0,1,61.25,30.39Z" style="fill:#2bafe3;fill-rule:evenodd"/>
    <path d="M78.47,165.28a5.07,5.07,0,1,1,0-10.14,5.07,5.07,0,1,1,0,10.14Z" style="fill:#2bafe3;fill-rule:evenodd"/>
    <path d="M112.71,81a4.93,4.93,0,0,1-5-5.06,5,5,0,0,1,5.19-5.11A5.18,5.18,0,0,1,117.9,76,5.07,5.07,0,0,1,112.71,81Z"
          style="fill:#9a9a9a;fill-rule:evenodd"/>
    <path d="M61.18,81a5.07,5.07,0,1,1,5.2-5.1A5,5,0,0,1,61.18,81Z" style="fill:#9a9a9a;fill-rule:evenodd"/>
    <path d="M27,81a5.08,5.08,0,0,1-5.21-5A5.19,5.19,0,0,1,27,70.8,5,5,0,0,1,32,75.89,4.94,4.94,0,0,1,27,81Z"
          style="fill:#9a9a9a;fill-rule:evenodd"/>
    <path d="M90.52,75.93a5,5,0,0,1,5-5.13A5.08,5.08,0,0,1,100.7,76a5,5,0,0,1-5.12,5A4.9,4.9,0,0,1,90.52,75.93Z"
          style="fill:#9a9a9a;fill-rule:evenodd"/>
    <path d="M78.46,81a5.07,5.07,0,1,1,5.1-5.06A5,5,0,0,1,78.46,81Z" style="fill:#9a9a9a;fill-rule:evenodd"/>
    <path d="M49.16,75.85a4.88,4.88,0,0,1-5,5.13A5,5,0,0,1,39,75.91a5.08,5.08,0,0,1,5.22-5.11A5,5,0,0,1,49.16,75.85Z"
          style="fill:#9a9a9a;fill-rule:evenodd"/>
    <path d="M112.74,64.11A5.07,5.07,0,1,1,112.82,54a5.07,5.07,0,1,1-.08,10.13Z"
          style="fill:#9a9a9a;fill-rule:evenodd"/>
    <path d="M26.91,64.11a5.07,5.07,0,1,1,0-10.13,5.07,5.07,0,1,1,0,10.13Z" style="fill:#9a9a9a;fill-rule:evenodd"/>
    <path d="M61.25,64.11a5.07,5.07,0,1,1,5.11-5A5,5,0,0,1,61.25,64.11Z" style="fill:#9a9a9a;fill-rule:evenodd"/>
    <path d="M78.36,64.11A5.07,5.07,0,0,1,78.43,54a5.07,5.07,0,1,1-.07,10.13Z" style="fill:#9a9a9a;fill-rule:evenodd"/>
    <path d="M90.52,59a5.07,5.07,0,1,1,5,5.1A4.93,4.93,0,0,1,90.52,59Z" style="fill:#9a9a9a;fill-rule:evenodd"/>
    <path d="M49.17,59.06a5.08,5.08,0,1,1-5-5.09A4.9,4.9,0,0,1,49.17,59.06Z" style="fill:#9a9a9a;fill-rule:evenodd"/>
    <text transform="translate(149.5 165.25)" style="font-size:43px;fill:#b3b3b3;font-family:NexaBold, Nexa Bold">
        <tspan style="letter-spacing:0.031000181686046513em">C</tspan>
        <tspan x="29.71" y="0">HUR</tspan>
        <tspan x="122.16" y="0" style="letter-spacing:0.030977470930232558em">C</tspan>
        <tspan x="151.87" y="0">H M</tspan>
        <tspan x="229.27" y="0" style="letter-spacing:0.03199945494186047em">A</tspan>
        <tspan x="262.86" y="0">DE SIMPLE</tspan>
    </text>
</svg>
